<?xml version="1.0" encoding="UTF-8"?>
<svg version="1.1" xmlns="http://www.w3.org/2000/svg" width="924" height="658">
<path d="M0 0 C1.4482485 0.00017939 1.4482485 0.00017939 2.92575455 0.0003624 C191.4425016 0.02972415 191.4425016 0.02972415 218.7734375 27.24609375 C249.72480081 59.7612019 243.88027361 125.89220121 243.76074219 167.84619141 C243.74934871 171.87917596 243.75613543 175.91189633 243.76762581 179.9448719 C244.03055882 289.00529151 244.03055882 289.00529151 217.98046875 316.80078125 C185.88948565 347.6788768 121.32095989 341.22784429 79.83099365 342.13604736 C77.15761984 342.19505745 74.48433429 342.25752404 71.81103516 342.31982422 C-153.8119936 347.49623487 -153.8119936 347.49623487 -198.5 330.1875 C-199.35335937 329.86394531 -200.20671875 329.54039062 -201.0859375 329.20703125 C-208.84526272 325.81691597 -214.5927085 320.08623021 -220.5 314.1875 C-221.12132812 313.57777344 -221.74265625 312.96804688 -222.3828125 312.33984375 C-251.16969297 281.66900513 -244.72578435 210.15443702 -244.6875 171.5 C-244.68722809 170.44944427 -244.68695618 169.39888855 -244.68667603 168.3164978 C-244.55155476 53.56611148 -244.55155476 53.56611148 -218.91796875 26.47265625 C-215.08188428 22.84727755 -211.00676817 19.92099858 -206.5 17.1875 C-205.74332031 16.72601563 -204.98664063 16.26453125 -204.20703125 15.7890625 C-192.54605106 9.34329456 -178.37111123 7.51703955 -165.3125 6.125 C-164.5851062 6.04478607 -163.8577124 5.96457214 -163.10827637 5.88192749 C-146.86610667 4.12356664 -130.56251557 3.30087877 -114.25 2.5 C-112.41122787 2.40886429 -112.41122787 2.40886429 -110.53530884 2.31588745 C-73.70505038 0.52681601 -36.86951934 -0.0204218 0 0 Z " fill="#FF0000" transform="translate(462.5,157.8125)"/>
<path d="M0 0 C4.30543598 0.8610872 6.29135503 1.52235967 9.89453125 3.66796875 C10.83731934 4.22411865 11.78010742 4.78026855 12.75146484 5.35327148 C14.26667725 6.2612146 14.26667725 6.2612146 15.8125 7.1875 C17.98818433 8.47412225 20.1639683 9.76057601 22.33984375 11.046875 C24.00442627 12.0359082 24.00442627 12.0359082 25.70263672 13.04492188 C30.74517081 16.03474958 35.80959256 18.98664632 40.875 21.9375 C41.85976318 22.51209961 42.84452637 23.08669922 43.85913086 23.67871094 C51.18621007 27.95170362 58.52727502 32.20012115 65.875 36.4375 C66.95072266 37.05786133 68.02644531 37.67822266 69.13476562 38.31738281 C74.66027538 41.5023856 80.18825632 44.68303455 85.71875 47.859375 C91.1257361 50.96638036 96.52598155 54.08475688 101.91992188 57.21435547 C103.97161443 58.40380374 106.02500124 59.59033442 108.08007812 60.77392578 C110.93511141 62.42138229 113.78115033 64.08333236 116.625 65.75 C117.47884277 66.23944092 118.33268555 66.72888184 119.21240234 67.2331543 C119.9802002 67.68730713 120.74799805 68.14145996 121.5390625 68.609375 C122.21146973 69.00092773 122.88387695 69.39248047 123.57666016 69.79589844 C124.0463623 70.19325195 124.51606445 70.59060547 125 71 C125 71.99 125 72.98 125 74 C122.35921766 75.52352827 119.71843269 77.047052 117.07763672 78.57055664 C114.74328358 79.91732423 112.40896765 81.26415607 110.07470703 82.61108398 C104.16021511 86.02377298 98.24511559 89.43539406 92.328125 92.84375 C81.86993639 98.8695535 71.42146581 104.91087047 61 111 C49.40871295 117.77203922 37.78801709 124.49214121 26.15087891 131.18505859 C23.0182529 132.98948612 19.88972962 134.80086767 16.76171875 136.61328125 C14.8412538 137.72154129 12.92068623 138.8296235 11 139.9375 C10.11546143 140.45199707 9.23092285 140.96649414 8.31958008 141.49658203 C7.51286865 141.9604834 6.70615723 142.42438477 5.875 142.90234375 C5.17117188 143.30960693 4.46734375 143.71687012 3.7421875 144.13647461 C2 145 2 145 0 145 C0 97.15 0 49.3 0 0 Z " fill="#FFFAFA" transform="translate(413,257)"/>
</svg>
