<?xml version="1.0" encoding="UTF-8"?>
<svg version="1.1" xmlns="http://www.w3.org/2000/svg" width="2048" height="2048">
<path d="M0 0 C9.84207782 0.00537379 19.68415334 0.00465694 29.52623226 0.00386497 C47.67550233 0.0025648 65.8247687 0.0058394 83.97403769 0.01188238 C101.89873448 0.01783505 119.82342973 0.02165544 137.7481275 0.02273519 C139.43082064 0.0228383 139.43082064 0.0228383 141.14750758 0.02294349 C146.84641341 0.02328191 152.54531923 0.02358326 158.24422506 0.02387037 C198.42688843 0.02596106 238.6095498 0.032671 278.79221205 0.04217298 C317.78667809 0.05138323 356.78114358 0.05845413 395.77561049 0.0626808 C397.5841251 0.06287808 397.5841251 0.06287808 399.42917536 0.06307936 C411.53899777 0.06439808 423.64882018 0.06567386 435.7586426 0.06691822 C460.41948556 0.06945324 485.08032849 0.07227449 509.7411714 0.0752693 C510.87460288 0.07540659 512.00803436 0.07554388 513.17581224 0.07568533 C571.67418717 0.0827965 630.17256117 0.09415498 688.6709352 0.10650404 C689.90328521 0.10676414 689.90328521 0.10676414 691.16053118 0.1070295 C707.29646585 0.11044294 723.43240047 0.11404576 739.5683351 0.11761244 C739.8983351 47.96761244 740.2283351 95.81761244 740.5683351 145.11761244 C745.1883351 142.80761244 749.8083351 140.49761244 754.5683351 138.11761244 C764.82474535 134.11761244 764.82474535 134.11761244 767.5683351 134.11761244 C767.5683351 133.45761244 767.5683351 132.79761244 767.5683351 132.11761244 C805.64255702 120.82937611 805.64255702 120.82937611 817.5683351 121.11761244 C817.5683351 120.45761244 817.5683351 119.79761244 817.5683351 119.11761244 C825.06590931 118.19937138 832.45684301 117.9650446 840.0058351 117.99261244 C841.06093275 117.98874525 842.11603041 117.98487806 843.20310072 117.98089369 C850.04406762 117.98931334 856.7680377 118.37563889 863.5683351 119.11761244 C863.5683351 119.77761244 863.5683351 120.43761244 863.5683351 121.11761244 C864.2283351 121.12019056 864.8883351 121.12276869 865.5683351 121.12542494 C881.4649786 121.74638757 897.7152572 126.58028076 912.5683351 132.11761244 C912.8017251 130.02551353 912.8017251 130.02551353 911.18161635 128.70354994 C910.64923354 128.18019056 910.11685072 127.65683119 909.5683351 127.11761244 C908.14647446 124.47000987 906.83986354 121.83692079 905.5683351 119.11761244 C904.78136244 117.46245619 904.78136244 117.46245619 903.97849135 115.77386244 C899.5683351 106.39320067 899.5683351 106.39320067 899.5683351 104.11761244 C898.9083351 104.11761244 898.2483351 104.11761244 897.5683351 104.11761244 C897.18161635 103.27198744 896.7948976 102.42636244 896.3964601 101.55511244 C892.93222128 93.98804034 892.93222128 93.98804034 889.1933351 86.55511244 C887.5683351 83.11761244 887.5683351 83.11761244 887.5683351 79.11761244 C886.9083351 79.11761244 886.2483351 79.11761244 885.5683351 79.11761244 C883.90839317 76.08344525 882.26799888 73.03912186 880.6308351 69.99261244 C880.16226088 69.13667494 879.69368666 68.28073744 879.21091322 67.39886244 C876.84371129 62.9710027 874.96131682 59.21801353 874.5683351 54.11761244 C873.9083351 54.11761244 873.2483351 54.11761244 872.5683351 54.11761244 C869.37001502 48.69095459 866.69319048 43.27308134 864.46286635 37.37933119 C863.60906731 35.10638009 863.60906731 35.10638009 862.46286635 32.99651869 C861.32861883 30.61410358 861.42361558 28.72256368 861.5683351 26.11761244 C860.9083351 26.11761244 860.2483351 26.11761244 859.5683351 26.11761244 C857.58036331 20.27794532 855.95788206 13.71635558 858.5839601 7.84808119 C859.07122572 6.99149915 859.07122572 6.99149915 859.5683351 6.11761244 C860.2283351 6.11761244 860.8883351 6.11761244 861.5683351 6.11761244 C861.5683351 5.45761244 861.5683351 4.79761244 861.5683351 4.11761244 C865.80974673 0.68893269 868.71035024 -0.3822497 874.12497554 -0.38033222 C875.43768166 -0.38957762 876.75038777 -0.39882301 878.10287286 -0.40834858 C879.55585203 -0.39837515 881.00882873 -0.3880362 882.461803 -0.37737219 C884.0147129 -0.38063468 885.56761993 -0.38565212 887.12051917 -0.39226605 C891.4048235 -0.40539404 895.68875412 -0.39349344 899.97303592 -0.3776537 C904.62855688 -0.36483274 909.28403456 -0.37518217 913.9395592 -0.3826295 C922.10621695 -0.3924758 930.27276094 -0.38740586 938.43940977 -0.37266772 C950.58642999 -0.35080759 962.73337261 -0.35180655 974.8804073 -0.35750199 C995.32890142 -0.36641812 1015.77734666 -0.35652255 1036.2258306 -0.33587305 C1056.52044954 -0.31541288 1076.81504737 -0.3028196 1097.10967688 -0.30083506 C1099.00390808 -0.30064031 1099.00390808 -0.30064031 1100.93640657 -0.30044162 C1106.06330581 -0.29994164 1111.19020504 -0.29950168 1116.31710429 -0.29913953 C1163.09886281 -0.2958329 1209.88058587 -0.27347328 1256.66232924 -0.23907702 C1300.70236941 -0.20670637 1344.74239487 -0.18536883 1388.78244643 -0.17755358 C1390.14846163 -0.17730841 1391.51447684 -0.17706292 1392.88049204 -0.17681709 C1399.6930875 -0.17559332 1406.50568296 -0.17439112 1413.31827842 -0.1731953 C1414.32712272 -0.17301795 1414.32712272 -0.17301795 1415.35634772 -0.17283703 C1418.74732565 -0.17224155 1422.13830358 -0.17165091 1425.52928151 -0.17106887 C1468.94886823 -0.16358568 1512.36845234 -0.14778225 1555.78803591 -0.12986969 C1568.46016106 -0.12464989 1581.13228616 -0.11970554 1593.80441169 -0.11550777 C1620.47350982 -0.10656575 1647.14260124 -0.09472472 1673.81169309 -0.07394173 C1684.83116264 -0.06541247 1695.8506279 -0.05821497 1706.87010054 -0.05542605 C1744.91287521 -0.04486954 1782.95578765 -0.0325489 1820.99577976 0.47653803 C1823.0677315 0.50322179 1825.13969617 0.52673582 1827.21169605 0.54934154 C1830.97269723 0.59297671 1834.7332815 0.64917894 1838.49404291 0.70977266 C1840.10485013 0.72626297 1840.10485013 0.72626297 1841.7481989 0.74308642 C1858.65657645 1.06653539 1858.65657645 1.06653539 1864.2245851 4.98870619 C1866.36539284 9.97355212 1866.14482641 14.81615893 1866.0683351 20.18011244 C1866.08380385 21.26872572 1866.0992726 22.357339 1866.1152101 23.47894056 C1866.10747572 25.04998548 1866.10747572 25.04998548 1866.0995851 26.65276869 C1866.09507338 27.60546644 1866.09056166 28.55816419 1866.08591322 29.53973158 C1865.419789 32.85747011 1864.17441063 34.02178031 1861.5683351 36.11761244 C1855.59914944 38.5129395 1849.68556983 38.43385593 1843.3183351 38.55511244 C1834.60957909 38.80544077 1826.2050818 39.53697961 1817.63376479 41.1017433 C1813.54895473 41.84590033 1809.72207089 42.26830001 1805.5683351 42.11761244 C1805.5683351 42.77761244 1805.5683351 43.43761244 1805.5683351 44.11761244 C1804.57575697 44.40894056 1803.58317885 44.70026869 1802.5605226 45.00042494 C1794.19615673 47.50724962 1786.22170199 50.38254791 1778.2636476 53.98089369 C1775.5683351 55.11761244 1775.5683351 55.11761244 1773.5683351 55.11761244 C1773.5683351 55.77761244 1773.5683351 56.43761244 1773.5683351 57.11761244 C1772.8670851 57.49272962 1772.1658351 57.86784681 1771.4433351 58.25433119 C1759.68514688 64.56382026 1759.68514688 64.56382026 1749.5683351 73.11761244 C1748.30858166 74.04944741 1747.03659319 74.9648645 1745.7558351 75.86761244 C1741.72166466 78.81331802 1738.60490683 82.24129127 1735.37692885 86.03558119 C1733.5683351 88.11761244 1733.5683351 88.11761244 1730.9433351 90.49261244 C1725.86479093 96.1057402 1722.88649335 102.9848178 1720.5683351 110.11761244 C1719.56927531 111.11855176 1718.56918937 112.11846744 1717.5683351 113.11761244 C1716.49282743 114.84578706 1716.49282743 114.84578706 1715.59567885 116.73479994 C1715.25343275 117.42444837 1714.91118666 118.11409681 1714.55856947 118.82464369 C1714.21116713 119.54007337 1713.86376479 120.25550306 1713.5058351 120.99261244 C1712.9789308 122.0541554 1712.9789308 122.0541554 1712.44138197 123.13714369 C1710.66363675 126.74640335 1708.99372695 130.35103293 1707.5683351 134.11761244 C1706.9083351 134.11761244 1706.2483351 134.11761244 1705.5683351 134.11761244 C1705.20095229 135.32804212 1705.20095229 135.32804212 1704.8261476 136.56292494 C1703.30702273 140.85610392 1701.41106411 144.89027986 1699.4433351 148.99261244 C1699.07079604 149.77636244 1698.69825697 150.56011244 1698.31442885 151.36761244 C1697.40214513 153.28574743 1696.48566526 155.20188573 1695.5683351 157.11761244 C1694.9083351 157.11761244 1694.2483351 157.11761244 1693.5683351 157.11761244 C1693.39153212 158.20465467 1693.39153212 158.20465467 1693.21115736 159.31365736 C1692.55674069 162.16818659 1691.61007761 164.37748472 1690.28317885 166.98089369 C1689.83522963 167.86712415 1689.38728041 168.75335462 1688.92575697 169.66644056 C1688.45718275 170.57845228 1687.98860854 171.490464 1687.5058351 172.43011244 C1686.79717299 173.82713392 1686.79717299 173.82713392 1686.07419447 175.25237806 C1684.91095866 177.54360012 1683.74220378 179.83182484 1682.5683351 182.11761244 C1681.9083351 182.11761244 1681.2483351 182.11761244 1680.5683351 182.11761244 C1680.39153212 183.19788709 1680.39153212 183.19788709 1680.21115736 184.29998548 C1679.54962917 187.1996045 1678.57835891 189.52731014 1677.28317885 192.19964369 C1676.83522963 193.13099134 1676.38728041 194.062339 1675.92575697 195.02190931 C1675.45718275 195.98161634 1674.98860854 196.94132337 1674.5058351 197.93011244 C1673.79717299 199.39867689 1673.79717299 199.39867689 1673.07419447 200.89690931 C1671.91062825 203.30631411 1670.74187214 205.71305251 1669.5683351 208.11761244 C1668.9083351 208.11761244 1668.2483351 208.11761244 1667.5683351 208.11761244 C1667.48454604 208.77632337 1667.40075697 209.43503431 1667.31442885 210.11370619 C1666.31809715 214.12511495 1664.52469844 217.5231126 1662.6308351 221.18011244 C1662.09039564 222.24068861 1662.09039564 222.24068861 1661.53903822 223.32269056 C1660.85087542 224.67240215 1660.16041752 226.02094694 1659.46726088 227.36810072 C1658.48624787 229.27737264 1657.52230422 231.19469038 1656.5683351 233.11761244 C1655.9083351 233.11761244 1655.2483351 233.11761244 1654.5683351 233.11761244 C1654.39153212 234.19788709 1654.39153212 234.19788709 1654.21115736 235.29998548 C1653.54962917 238.1996045 1652.57835891 240.52731014 1651.28317885 243.19964369 C1650.83522963 244.13099134 1650.38728041 245.062339 1649.92575697 246.02190931 C1649.45718275 246.98161634 1648.98860854 247.94132337 1648.5058351 248.93011244 C1647.79717299 250.39867689 1647.79717299 250.39867689 1647.07419447 251.89690931 C1645.91062825 254.30631411 1644.74187214 256.71305251 1643.5683351 259.11761244 C1642.9083351 259.11761244 1642.2483351 259.11761244 1641.5683351 259.11761244 C1641.4858351 259.77374525 1641.4033351 260.42987806 1641.3183351 261.10589369 C1640.30834436 265.16163774 1638.48280741 268.60670001 1636.5683351 272.30511244 C1636.01532729 273.39082533 1636.01532729 273.39082533 1635.4511476 274.49847181 C1634.49506392 276.37400093 1633.53215901 278.2460492 1632.5683351 280.11761244 C1632.2383351 280.77761244 1631.9083351 281.43761244 1631.5683351 282.11761244 C1630.9083351 282.11761244 1630.2483351 282.11761244 1629.5683351 282.11761244 C1629.2383351 283.25198744 1628.9083351 284.38636244 1628.5683351 285.55511244 C1625.99187432 293.37247148 1622.14365712 300.72068729 1618.5683351 308.11761244 C1617.9083351 308.11761244 1617.2483351 308.11761244 1616.5683351 308.11761244 C1616.32212416 309.10116712 1616.07591322 310.08472181 1615.82224135 311.09808119 C1614.56870087 315.4838162 1612.59788144 319.39197648 1610.5058351 323.43011244 C1610.14167494 324.14489759 1609.77751479 324.85968275 1609.40231947 325.59612806 C1608.46257527 327.43913842 1607.51594112 329.27863196 1606.5683351 331.11761244 C1606.2383351 331.77761244 1605.9083351 332.43761244 1605.5683351 333.11761244 C1604.9083351 333.11761244 1604.2483351 333.11761244 1603.5683351 333.11761244 C1603.2383351 334.25198744 1602.9083351 335.38636244 1602.5683351 336.55511244 C1599.99187432 344.37247148 1596.14365712 351.72068729 1592.5683351 359.11761244 C1591.9083351 359.11761244 1591.2483351 359.11761244 1590.5683351 359.11761244 C1590.33372572 359.90394056 1590.09911635 360.69026869 1589.8573976 361.50042494 C1588.19705057 366.15945933 1586.08889818 370.54056904 1583.9433351 374.99261244 C1583.52310072 375.87175306 1583.10286635 376.75089369 1582.6698976 377.65667494 C1581.6391659 379.81184122 1580.60524083 381.96541166 1579.5683351 384.11761244 C1578.9083351 384.11761244 1578.2483351 384.11761244 1577.5683351 384.11761244 C1577.2383351 385.25198744 1576.9083351 386.38636244 1576.5683351 387.55511244 C1573.99187432 395.37247148 1570.14365712 402.72068729 1566.5683351 410.11761244 C1565.9083351 410.11761244 1565.2483351 410.11761244 1564.5683351 410.11761244 C1564.20095229 411.32804212 1564.20095229 411.32804212 1563.8261476 412.56292494 C1562.30702273 416.85610392 1560.41106411 420.89027986 1558.4433351 424.99261244 C1558.07079604 425.77636244 1557.69825697 426.56011244 1557.31442885 427.36761244 C1556.40214513 429.28574743 1555.48566526 431.20188573 1554.5683351 433.11761244 C1553.9083351 433.11761244 1553.2483351 433.11761244 1552.5683351 433.11761244 C1552.2383351 434.25198744 1551.9083351 435.38636244 1551.5683351 436.55511244 C1548.99187432 444.37247148 1545.14365712 451.72068729 1541.5683351 459.11761244 C1540.9083351 459.11761244 1540.2483351 459.11761244 1539.5683351 459.11761244 C1539.28296889 459.84230726 1538.99760268 460.56700208 1538.703589 461.31365736 C1537.65719777 463.8981312 1536.55177149 466.44000328 1535.4042726 468.98089369 C1535.00466322 469.86712415 1534.60505385 470.75335462 1534.1933351 471.66644056 C1533.7808351 472.57845228 1533.3683351 473.490464 1532.9433351 474.43011244 C1532.52310072 475.36146009 1532.10286635 476.29280775 1531.6698976 477.25237806 C1530.63698567 479.54121699 1529.60310276 481.82961203 1528.5683351 484.11761244 C1527.9083351 484.11761244 1527.2483351 484.11761244 1526.5683351 484.11761244 C1526.2383351 485.25198744 1525.9083351 486.38636244 1525.5683351 487.55511244 C1523.91264007 492.53015758 1521.77767224 497.24504819 1519.5683351 501.99261244 C1519.22415541 502.74212171 1518.87997572 503.49163099 1518.52536635 504.26385267 C1518.02069838 505.33228407 1518.02069838 505.33228407 1517.5058351 506.42229994 C1517.05530775 507.38112074 1517.05530775 507.38112074 1516.59567885 508.35931165 C1515.5683351 510.11761244 1515.5683351 510.11761244 1514.10227064 511.52947767 C1512.1343804 513.56690024 1511.23844471 515.63801553 1510.08786635 518.22308119 C1509.64636244 519.20599134 1509.20485854 520.1889015 1508.74997572 521.20159681 C1508.29815932 522.22575697 1507.84634291 523.24991712 1507.3808351 524.30511244 C1506.68570814 525.85875501 1506.68570814 525.85875501 1505.97653822 527.44378431 C1504.83431794 529.99906061 1503.69852986 532.55700006 1502.5683351 535.11761244 C1501.9083351 535.11761244 1501.2483351 535.11761244 1500.5683351 535.11761244 C1500.2383351 536.27261244 1499.9083351 537.42761244 1499.5683351 538.61761244 C1497.09278928 546.14085654 1493.19352427 553.09972842 1489.5683351 560.11761244 C1488.9083351 560.11761244 1488.2483351 560.11761244 1487.5683351 560.11761244 C1487.20095229 561.31257337 1487.20095229 561.31257337 1486.8261476 562.53167494 C1485.26953007 566.96948515 1483.37697139 571.208549 1481.4433351 575.49261244 C1481.07079604 576.32405775 1480.69825697 577.15550306 1480.31442885 578.01214369 C1479.40159964 580.04845499 1478.48617912 582.08355783 1477.5683351 584.11761244 C1476.9083351 584.11761244 1476.2483351 584.11761244 1475.5683351 584.11761244 C1475.31954604 584.91554212 1475.07075697 585.71347181 1474.81442885 586.53558119 C1473.28561336 590.93032666 1471.49348242 595.16823865 1469.6308351 599.43011244 C1469.28343275 600.25317884 1468.93603041 601.07624525 1468.57810072 601.92425306 C1468.06473158 603.09697767 1468.06473158 603.09697767 1467.54099135 604.29339369 C1467.23427504 605.00406996 1466.92755873 605.71474623 1466.61154799 606.44695814 C1465.5683351 608.11761244 1465.5683351 608.11761244 1462.5683351 609.11761244 C1461.82397722 611.09001599 1461.1708652 613.09736445 1460.5683351 615.11761244 C1459.61751637 617.27615634 1458.63724983 619.42192294 1457.6308351 621.55511244 C1455.52885882 626.04686614 1453.48315421 630.54332234 1451.5683351 635.11761244 C1450.9083351 635.11761244 1450.2483351 635.11761244 1449.5683351 635.11761244 C1449.32212416 636.10116712 1449.07591322 637.08472181 1448.82224135 638.09808119 C1447.56870087 642.4838162 1445.59788144 646.39197648 1443.5058351 650.43011244 C1443.14167494 651.14489759 1442.77751479 651.85968275 1442.40231947 652.59612806 C1441.46257527 654.43913842 1440.51594112 656.27863196 1439.5683351 658.11761244 C1439.2383351 658.77761244 1438.9083351 659.43761244 1438.5683351 660.11761244 C1437.9083351 660.11761244 1437.2483351 660.11761244 1436.5683351 660.11761244 C1436.39044447 661.21396009 1436.39044447 661.21396009 1436.2089601 662.33245619 C1435.56796359 665.11922759 1434.66175978 667.16756816 1433.3183351 669.68011244 C1430.38324411 675.35348073 1427.95858953 681.19791848 1425.5683351 687.11761244 C1424.9083351 687.11761244 1424.2483351 687.11761244 1423.5683351 687.11761244 C1423.32212416 687.93745619 1423.07591322 688.75729994 1422.82224135 689.60198744 C1421.35633783 693.71199729 1419.4912611 697.48910583 1417.5058351 701.36761244 C1417.14167494 702.08690931 1416.77751479 702.80620619 1416.40231947 703.54729994 C1415.46092427 705.40572891 1414.51494773 707.26183558 1413.5683351 709.11761244 C1413.2383351 709.77761244 1412.9083351 710.43761244 1412.5683351 711.11761244 C1411.9083351 711.11761244 1411.2483351 711.11761244 1410.5683351 711.11761244 C1410.44595473 711.84681898 1410.32357436 712.57602552 1410.19748549 713.32732923 C1409.58029984 716.06454878 1408.71895331 718.24238881 1407.50192885 720.76214369 C1407.09909682 721.60325697 1406.69626479 722.44437025 1406.28122572 723.31097181 C1405.86034682 724.17528822 1405.43946791 725.03960462 1405.0058351 725.93011244 C1404.581089 726.81376478 1404.15634291 727.69741712 1403.71872572 728.60784681 C1402.67362085 730.78025581 1401.62336748 732.95001201 1400.5683351 735.11761244 C1399.9083351 735.11761244 1399.2483351 735.11761244 1398.5683351 735.11761244 C1398.4426515 736.10567884 1398.4426515 736.10567884 1398.31442885 737.11370619 C1397.31809715 741.12511495 1395.52469844 744.5231126 1393.6308351 748.18011244 C1393.27054213 748.88716322 1392.91024916 749.594214 1392.53903822 750.32269056 C1391.85087542 751.67240215 1391.16041752 753.02094694 1390.46726088 754.36810072 C1389.48624787 756.27737264 1388.52230422 758.19469038 1387.5683351 760.11761244 C1386.9083351 760.11761244 1386.2483351 760.11761244 1385.5683351 760.11761244 C1385.39153212 761.19788709 1385.39153212 761.19788709 1385.21115736 762.29998548 C1384.54962917 765.1996045 1383.57835891 767.52731014 1382.28317885 770.19964369 C1381.61125502 771.59666517 1381.61125502 771.59666517 1380.92575697 773.02190931 C1380.45718275 773.98161634 1379.98860854 774.94132337 1379.5058351 775.93011244 C1378.79717299 777.39867689 1378.79717299 777.39867689 1378.07419447 778.89690931 C1376.91062825 781.30631411 1375.74187214 783.71305251 1374.5683351 786.11761244 C1373.9083351 786.11761244 1373.2483351 786.11761244 1372.5683351 786.11761244 C1372.4426515 787.10567884 1372.4426515 787.10567884 1372.31442885 788.11370619 C1371.31809715 792.12511495 1369.52469844 795.5231126 1367.6308351 799.18011244 C1367.27054213 799.88716322 1366.91024916 800.594214 1366.53903822 801.32269056 C1365.85087542 802.67240215 1365.16041752 804.02094694 1364.46726088 805.36810072 C1363.48624787 807.27737264 1362.52230422 809.19469038 1361.5683351 811.11761244 C1360.9083351 811.11761244 1360.2483351 811.11761244 1359.5683351 811.11761244 C1359.39153212 812.19788709 1359.39153212 812.19788709 1359.21115736 813.29998548 C1358.54962917 816.1996045 1357.57835891 818.52731014 1356.28317885 821.19964369 C1355.61125502 822.59666517 1355.61125502 822.59666517 1354.92575697 824.02190931 C1354.45718275 824.98161634 1353.98860854 825.94132337 1353.5058351 826.93011244 C1352.79717299 828.39867689 1352.79717299 828.39867689 1352.07419447 829.89690931 C1350.91062825 832.30631411 1349.74187214 834.71305251 1348.5683351 837.11761244 C1347.9083351 837.11761244 1347.2483351 837.11761244 1346.5683351 837.11761244 C1346.44595473 837.8513307 1346.32357436 838.58504896 1346.19748549 839.34100111 C1345.58679738 842.03613337 1344.75406381 844.09203087 1343.50192885 846.54339369 C1342.8976808 847.73738783 1342.8976808 847.73738783 1342.28122572 848.95550306 C1341.86034682 849.77212415 1341.43946791 850.58874525 1341.0058351 851.43011244 C1340.581089 852.26606947 1340.15634291 853.1020265 1339.71872572 853.96331556 C1338.6739872 856.0175767 1337.62373747 858.06881536 1336.5683351 860.11761244 C1335.9083351 860.11761244 1335.2483351 860.11761244 1334.5683351 860.11761244 C1334.2383351 861.25198744 1333.9083351 862.38636244 1333.5683351 863.55511244 C1331.90044915 868.57488511 1329.73622073 873.3289905 1327.5058351 878.11761244 C1326.97699721 879.26701307 1326.97699721 879.26701307 1326.43747572 880.43963392 C1323.81158273 885.99598862 1323.81158273 885.99598862 1321.5683351 887.11761244 C1321.1661476 888.04573744 1321.1661476 888.04573744 1320.7558351 888.99261244 C1319.07719595 891.99649302 1317.7629418 892.78652631 1314.5683351 894.11761244 C1309.73816913 894.77699365 1305.90406064 894.84113044 1301.5683351 892.49261244 C1299.29963022 889.79852539 1298.41773444 887.51520981 1297.5683351 884.11761244 C1296.9083351 884.11761244 1296.2483351 884.11761244 1295.5683351 884.11761244 C1293.72888884 880.1620914 1291.89781957 876.20274959 1290.0683351 872.24261244 C1289.28136244 870.5507179 1289.28136244 870.5507179 1288.47849135 868.82464369 C1287.73405775 867.2100929 1287.73405775 867.2100929 1286.9745851 865.56292494 C1286.51374525 864.56792982 1286.05290541 863.5729347 1285.57810072 862.54778822 C1284.5683351 860.11761244 1284.5683351 860.11761244 1284.5683351 858.11761244 C1283.9083351 858.11761244 1283.2483351 858.11761244 1282.5683351 858.11761244 C1280.72871836 854.32896268 1278.89771438 850.53621468 1277.0683351 846.74261244 C1276.54368666 845.66237806 1276.01903822 844.58214369 1275.47849135 843.46917494 C1274.73405775 841.92229994 1274.73405775 841.92229994 1273.9745851 840.34417494 C1273.51374525 839.39107435 1273.05290541 838.43797376 1272.57810072 837.45599134 C1271.5683351 835.11761244 1271.5683351 835.11761244 1271.5683351 833.11761244 C1270.9083351 833.11761244 1270.2483351 833.11761244 1269.5683351 833.11761244 C1267.89558207 829.49539033 1266.23117259 825.86939583 1264.5683351 822.24261244 C1264.09138197 821.21007337 1263.61442885 820.17753431 1263.1230226 819.11370619 C1262.67185072 818.12757337 1262.22067885 817.14144056 1261.7558351 816.12542494 C1261.33688979 815.21421888 1260.91794447 814.30301283 1260.48630385 813.36419447 C1259.5683351 811.11761244 1259.5683351 811.11761244 1259.5683351 809.11761244 C1258.9083351 809.11761244 1258.2483351 809.11761244 1257.5683351 809.11761244 C1248.9373556 792.40918419 1248.9373556 792.40918419 1246.5683351 784.11761244 C1245.9083351 784.11761244 1245.2483351 784.11761244 1244.5683351 784.11761244 C1242.72888884 780.1620914 1240.89781957 776.20274959 1239.0683351 772.24261244 C1238.28136244 770.5507179 1238.28136244 770.5507179 1237.47849135 768.82464369 C1236.73405775 767.2100929 1236.73405775 767.2100929 1235.9745851 765.56292494 C1235.51374525 764.56792982 1235.05290541 763.5729347 1234.57810072 762.54778822 C1233.5683351 760.11761244 1233.5683351 760.11761244 1233.5683351 758.11761244 C1232.9083351 758.11761244 1232.2483351 758.11761244 1231.5683351 758.11761244 C1222.9373556 741.40918419 1222.9373556 741.40918419 1220.5683351 733.11761244 C1219.9083351 733.11761244 1219.2483351 733.11761244 1218.5683351 733.11761244 C1216.72888884 729.1620914 1214.89781957 725.20274959 1213.0683351 721.24261244 C1212.28136244 719.5507179 1212.28136244 719.5507179 1211.47849135 717.82464369 C1210.73405775 716.2100929 1210.73405775 716.2100929 1209.9745851 714.56292494 C1209.51374525 713.56792982 1209.05290541 712.5729347 1208.57810072 711.54778822 C1207.5683351 709.11761244 1207.5683351 709.11761244 1207.5683351 707.11761244 C1206.9083351 707.11761244 1206.2483351 707.11761244 1205.5683351 707.11761244 C1205.10942885 706.19979994 1204.6505226 705.28198744 1204.1777101 704.33636244 C1203.88195082 703.74516615 1203.58619154 703.15396986 1203.28146986 702.54485853 C1202.63768768 701.25664141 1201.99495184 699.96790087 1201.35324721 698.67864759 C1199.99616054 695.95481773 1198.63248014 693.23924771 1197.21286635 690.54729994 C1195.3695282 687.04695385 1194.5683351 685.16648823 1194.5683351 681.11761244 C1193.5783351 680.78761244 1192.5883351 680.45761244 1191.5683351 680.11761244 C1190.5058351 678.51604994 1190.5058351 678.51604994 1189.5683351 676.49261244 C1189.23060072 675.76944837 1188.89286635 675.04628431 1188.5448976 674.30120619 C1188.06149916 673.22032728 1188.06149916 673.22032728 1187.5683351 672.11761244 C1187.0320851 670.94198744 1186.4958351 669.76636244 1185.9433351 668.55511244 C1184.55800435 665.09178557 1183.52355785 661.71806744 1182.5683351 658.11761244 C1181.9083351 658.11761244 1181.2483351 658.11761244 1180.5683351 658.11761244 C1178.72552153 654.35133994 1176.89573084 650.57888669 1175.0683351 646.80511244 C1174.54368666 645.73325697 1174.01903822 644.6614015 1173.47849135 643.55706556 C1172.73405775 642.01502455 1172.73405775 642.01502455 1171.9745851 640.44183119 C1171.51374525 639.49396742 1171.05290541 638.54610365 1170.57810072 637.56951673 C1169.5683351 635.11761244 1169.5683351 635.11761244 1169.5683351 632.11761244 C1168.9083351 632.11761244 1168.2483351 632.11761244 1167.5683351 632.11761244 C1164.14083168 625.3990991 1160.95108642 618.60578627 1157.90036635 611.70745619 C1156.83202304 609.00327164 1156.83202304 609.00327164 1154.5683351 608.11761244 C1153.63470736 606.4047944 1152.78057219 604.64831427 1151.9667726 602.87542494 C1151.47692885 601.80937025 1150.9870851 600.74331556 1150.4823976 599.64495619 C1149.97450697 598.52218275 1149.46661635 597.39940931 1148.9433351 596.24261244 C1148.4277101 595.12757337 1147.9120851 594.01253431 1147.3808351 592.86370619 C1143.5683351 584.50242973 1143.5683351 584.50242973 1143.5683351 581.11761244 C1142.9083351 581.11761244 1142.2483351 581.11761244 1141.5683351 581.11761244 C1139.91964883 577.68147362 1138.27487906 574.24347451 1136.6308351 570.80511244 C1136.16226088 569.82864759 1135.69368666 568.85218275 1135.21091322 567.84612806 C1134.762964 566.90833509 1134.31501479 565.97054212 1133.85349135 565.00433119 C1133.2329286 563.70821913 1133.2329286 563.70821913 1132.59982924 562.38592298 C1131.5683351 560.11761244 1131.5683351 560.11761244 1130.5683351 557.11761244 C1129.9083351 557.11761244 1129.2483351 557.11761244 1128.5683351 557.11761244 C1126.89558207 553.49539033 1125.23117259 549.86939583 1123.5683351 546.24261244 C1123.09138197 545.21007337 1122.61442885 544.17753431 1122.1230226 543.11370619 C1121.67185072 542.12757337 1121.22067885 541.14144056 1120.7558351 540.12542494 C1120.33688979 539.21421888 1119.91794447 538.30301283 1119.48630385 537.36419447 C1118.5683351 535.11761244 1118.5683351 535.11761244 1118.5683351 533.11761244 C1117.9083351 533.11761244 1117.2483351 533.11761244 1116.5683351 533.11761244 C1114.92004258 529.51456543 1113.27512482 525.90998772 1111.6308351 522.30511244 C1111.16226088 521.28095228 1110.69368666 520.25679212 1110.21091322 519.20159681 C1109.53898939 517.72723158 1109.53898939 517.72723158 1108.85349135 516.22308119 C1108.2329286 514.86412733 1108.2329286 514.86412733 1107.59982924 513.47771986 C1106.5683351 511.11761244 1106.5683351 511.11761244 1105.5683351 508.11761244 C1104.9083351 508.11761244 1104.2483351 508.11761244 1103.5683351 508.11761244 C1101.72888884 504.1620914 1099.89781957 500.20274959 1098.0683351 496.24261244 C1097.28136244 494.5507179 1097.28136244 494.5507179 1096.47849135 492.82464369 C1095.73405775 491.2100929 1095.73405775 491.2100929 1094.9745851 489.56292494 C1094.51374525 488.56792982 1094.05290541 487.5729347 1093.57810072 486.54778822 C1092.5683351 484.11761244 1092.5683351 484.11761244 1092.5683351 482.11761244 C1091.9083351 482.11761244 1091.2483351 482.11761244 1090.5683351 482.11761244 C1089.1082699 478.8892261 1087.65059126 475.65976759 1086.1933351 472.43011244 C1085.7808351 471.51810072 1085.3683351 470.606089 1084.9433351 469.66644056 C1084.34392104 468.33709486 1084.34392104 468.33709486 1083.7323976 466.98089369 C1083.36582045 466.16918714 1082.9992433 465.3574806 1082.62155775 464.52117689 C1081.54887106 462.07319347 1080.54752793 459.60429778 1079.5683351 457.11761244 C1078.9083351 457.11761244 1078.2483351 457.11761244 1077.5683351 457.11761244 C1075.72888884 453.1620914 1073.89781957 449.20274959 1072.0683351 445.24261244 C1071.28136244 443.5507179 1071.28136244 443.5507179 1070.47849135 441.82464369 C1069.73405775 440.2100929 1069.73405775 440.2100929 1068.9745851 438.56292494 C1068.51374525 437.56792982 1068.05290541 436.5729347 1067.57810072 435.54778822 C1066.5683351 433.11761244 1066.5683351 433.11761244 1066.5683351 431.11761244 C1065.9083351 431.11761244 1065.2483351 431.11761244 1064.5683351 431.11761244 C1064.3417018 430.59852308 1064.1150685 430.07943373 1063.88156752 429.54461439 C1062.84314535 427.17156958 1061.79953948 424.8008385 1060.7558351 422.43011244 C1060.22119643 421.2051808 1060.22119643 421.2051808 1059.67575697 419.95550306 C1057.85417228 415.82769189 1055.90985889 411.98075736 1053.5683351 408.11761244 C1053.5683351 407.45761244 1053.5683351 406.79761244 1053.5683351 406.11761244 C1052.9083351 406.11761244 1052.2483351 406.11761244 1051.5683351 406.11761244 C1049.89558207 402.49539033 1048.23117259 398.86939583 1046.5683351 395.24261244 C1046.09138197 394.21007337 1045.61442885 393.17753431 1045.1230226 392.11370619 C1044.67185072 391.12757337 1044.22067885 390.14144056 1043.7558351 389.12542494 C1043.12741713 387.75861585 1043.12741713 387.75861585 1042.48630385 386.36419447 C1041.5683351 384.11761244 1041.5683351 384.11761244 1041.5683351 382.11761244 C1040.9083351 382.11761244 1040.2483351 382.11761244 1039.5683351 382.11761244 C1037.72871836 378.32896268 1035.89771438 374.53621468 1034.0683351 370.74261244 C1033.54368666 369.66237806 1033.01903822 368.58214369 1032.47849135 367.46917494 C1031.73405775 365.92229994 1031.73405775 365.92229994 1030.9745851 364.34417494 C1030.51374525 363.39107435 1030.05290541 362.43797376 1029.57810072 361.45599134 C1028.5683351 359.11761244 1028.5683351 359.11761244 1028.5683351 357.11761244 C1027.9083351 357.11761244 1027.2483351 357.11761244 1026.5683351 357.11761244 C1024.72888884 353.1620914 1022.89781957 349.20274959 1021.0683351 345.24261244 C1020.28136244 343.5507179 1020.28136244 343.5507179 1019.47849135 341.82464369 C1018.73405775 340.2100929 1018.73405775 340.2100929 1017.9745851 338.56292494 C1017.51374525 337.56792982 1017.05290541 336.5729347 1016.57810072 335.54778822 C1015.5683351 333.11761244 1015.5683351 333.11761244 1015.5683351 331.11761244 C1014.9083351 331.11761244 1014.2483351 331.11761244 1013.5683351 331.11761244 C1004.9373556 314.40918419 1004.9373556 314.40918419 1002.5683351 306.11761244 C1001.9083351 306.11761244 1001.2483351 306.11761244 1000.5683351 306.11761244 C1000.28860854 305.51175306 1000.00888197 304.90589369 999.72067885 304.28167494 C997.09423391 298.79232057 994.13581702 293.91327716 990.5683351 288.99261244 C988.64205331 286.22358236 986.87348209 283.40391279 985.11960463 280.524839 C977.14929762 267.44938855 968.16725947 255.19662746 957.5683351 244.11761244 C956.78716322 243.26167494 956.00599135 242.40573744 955.2011476 241.52386244 C929.0353056 213.84692318 891.36194208 198.44692601 853.6464601 197.16058119 C830.18096047 196.7392894 807.41162564 202.46211561 786.5683351 213.11761244 C785.93604994 213.43987806 785.30376479 213.76214369 784.65231947 214.09417494 C775.54266232 218.82696408 767.46558307 224.60922579 759.5683351 231.11761244 C758.63634291 231.88331556 757.70435072 232.64901869 756.74411635 233.43792494 C749.37861065 239.75750681 741.66935468 248.09295324 740.28883602 258.15471048 C740.18197819 260.45372922 740.16572906 262.73605245 740.18357424 265.03751047 C740.17842401 265.91710721 740.17327379 266.79670396 740.16796749 267.70295514 C740.15434597 270.65169623 740.16203089 273.59999236 740.16960768 276.54874952 C740.16417465 278.67803579 740.15742895 280.80731905 740.14948134 282.93659742 C740.13140905 288.80159435 740.13204664 294.66646506 740.13561815 300.53148329 C740.13620691 306.94803874 740.11942572 313.36455281 740.10482935 319.78108843 C740.0820174 330.82531919 740.0697919 341.86951738 740.06545119 352.91377027 C740.05918774 368.7402578 740.03428026 384.56665153 740.00620131 400.39312513 C739.94813962 438.44709955 739.91608539 476.50111005 739.8808351 514.55511244 C739.7777101 599.55073744 739.6745851 684.54636244 739.5683351 772.11761244 C484.8083351 772.11761244 230.0483351 772.11761244 -32.4316649 772.11761244 C-31.9316649 420.74261244 -31.9316649 420.74261244 -31.64846178 309.64349134 C-31.64154238 276.88511118 -31.64154238 276.88511118 -31.65590807 244.12673719 C-31.66213787 228.52846436 -31.61526673 212.93121871 -31.54286052 197.33314398 C-31.47035617 181.43377215 -31.45751479 165.53518304 -31.50236439 149.63570414 C-31.52728449 140.17740531 -31.50877105 130.72163813 -31.42496785 121.26366403 C-31.37399391 115.02034725 -31.38087794 108.77883906 -31.43514095 102.5355539 C-31.46440864 98.97701603 -31.46829301 95.42342175 -31.40158506 91.86527856 C-30.538476 78.26918289 -30.538476 78.26918289 -35.0468026 65.99571638 C-40.15500776 61.39511045 -45.98625823 59.26608133 -52.4316649 57.11761244 C-52.4316649 56.45761244 -52.4316649 55.79761244 -52.4316649 55.11761244 C-53.27342271 54.84819837 -54.11518053 54.57878431 -54.98244615 54.30120619 C-57.9491691 53.28318008 -60.83914699 52.15962965 -63.73610826 50.95989759 C-70.52632313 48.1480285 -77.2645947 45.81625277 -84.4316649 44.11761244 C-84.4316649 43.45761244 -84.4316649 42.79761244 -84.4316649 42.11761244 C-85.06330553 42.06862806 -85.69494615 42.01964369 -86.3457274 41.96917494 C-91.48280529 41.53985142 -96.53213124 40.95400816 -101.6191649 40.11761244 C-109.32572232 38.94710427 -117.02898295 38.74904018 -124.81716295 38.63519056 C-130.95847095 38.47809553 -136.90627099 38.04689452 -142.4316649 35.11761244 C-145.53066569 30.46911125 -144.80023944 25.71067824 -144.8066649 20.24261244 C-144.83115709 19.15335462 -144.85564928 18.06409681 -144.88088365 16.94183119 C-144.89703603 12.54300093 -144.83207726 9.05659112 -143.0957274 4.98479994 C-136.43739842 0.31811188 -126.62142527 0.80221457 -118.73670431 0.70754106 C-117.71064111 0.68843928 -116.68457792 0.66933749 -115.6274219 0.64965687 C-112.18745906 0.58941887 -108.74749511 0.5438744 -105.30729051 0.49970777 C-102.78919833 0.46170936 -100.27110652 0.42368574 -97.75301506 0.38563932 C-65.1709689 -0.07207895 -32.58448092 -0.0184851 0 0 Z " fill="#000000" transform="translate(163.4316649022512,576.8823875640519)"/>
<path d="M0 0 C1.48969561 -0.0060613 1.48969561 -0.0060613 3.00948608 -0.01224506 C4.64597832 -0.01130594 4.64597832 -0.01130594 6.31553102 -0.01034784 C7.47935072 -0.01359886 8.64317042 -0.01684988 9.84225738 -0.02019942 C13.08770007 -0.02822755 16.33311252 -0.03176516 19.57856361 -0.03342255 C23.10374977 -0.03628994 26.62892286 -0.04485019 30.15410089 -0.05266094 C37.15257988 -0.06723215 44.15105649 -0.07633786 51.14954631 -0.08374964 C56.97010582 -0.09007144 62.79065801 -0.09873059 68.61121202 -0.10890818 C69.87013473 -0.11110868 69.87013473 -0.11110868 71.15449023 -0.11335363 C72.86612759 -0.1163542 74.57776495 -0.11935844 76.2894023 -0.12236629 C98.46885716 -0.16091052 120.64832366 -0.18590052 142.8277996 -0.20854339 C145.70057602 -0.21148686 148.57335238 -0.21447694 151.44612873 -0.21748137 C187.97930655 -0.25562496 224.51248858 -0.28914375 261.04568021 -0.31074053 C270.33330437 -0.31623478 279.62092841 -0.32193432 288.90855241 -0.32770777 C289.93482656 -0.32834019 290.96110072 -0.32897262 292.01847409 -0.32962421 C325.30511753 -0.35031254 358.59166354 -0.39629193 391.87825746 -0.45636045 C426.08831039 -0.51798315 460.29831112 -0.55694617 494.5084204 -0.56624377 C499.3377639 -0.56756056 504.16710729 -0.56912252 508.99645066 -0.57082605 C509.94693281 -0.57115151 510.89741495 -0.57147698 511.87669959 -0.5718123 C527.18745298 -0.57769407 542.49807334 -0.60728647 557.80877623 -0.64553227 C573.19115047 -0.68341084 588.57337728 -0.69569165 603.95579335 -0.68176967 C613.09919573 -0.67425941 622.24208802 -0.68631104 631.38540911 -0.72619284 C637.49019309 -0.75090071 643.5946323 -0.7502643 649.69942806 -0.72889369 C653.17986238 -0.71743612 656.65932429 -0.71710031 660.13966534 -0.74760789 C663.88830765 -0.77459908 667.63438826 -0.75872101 671.38297486 -0.73187494 C673.00542011 -0.75902981 673.00542011 -0.75902981 674.66064203 -0.78673327 C681.25727016 -0.68160172 684.83962557 0.63230218 689.70185961 5.13089439 C691.88931819 8.26002437 691.82059937 11.107259 691.51499772 14.81975317 C691.04251796 17.45850805 690.36523871 19.76168412 689.10093522 22.13225317 C688.44093522 22.13225317 687.78093522 22.13225317 687.10093522 22.13225317 C686.85472428 22.95209692 686.60851335 23.77194067 686.35484147 24.61662817 C684.88893796 28.72663802 683.02386122 32.50374657 681.03843522 36.38225317 C680.67427506 37.10155005 680.31011491 37.82084692 679.9349196 38.56194067 C678.99352439 40.42036965 678.04754785 42.27647632 677.10093522 44.13225317 C676.77093522 44.79225317 676.44093522 45.45225317 676.10093522 46.13225317 C675.44093522 46.13225317 674.78093522 46.13225317 674.10093522 46.13225317 C673.97855485 46.86145971 673.85617448 47.59066626 673.73008561 48.34196997 C673.11289996 51.07918951 672.25155343 53.25702954 671.03452897 55.77678442 C670.63169694 56.6178977 670.22886491 57.45901098 669.81382585 58.32561255 C669.18250749 59.62208715 669.18250749 59.62208715 668.53843522 60.94475317 C668.11368913 61.82840551 667.68894303 62.71205786 667.25132585 63.62248755 C666.20622098 65.79489654 665.1559676 67.96465274 664.10093522 70.13225317 C663.44093522 70.13225317 662.78093522 70.13225317 662.10093522 70.13225317 C661.77093522 71.26662817 661.44093522 72.40100317 661.10093522 73.56975317 C658.52447444 81.38711222 654.67625725 88.73532803 651.10093522 96.13225317 C650.44093522 96.13225317 649.78093522 96.13225317 649.10093522 96.13225317 C649.01714616 96.79096411 648.9333571 97.44967505 648.84702897 98.12834692 C647.85069727 102.13975569 646.05729856 105.53775334 644.16343522 109.19475317 C643.80314225 109.90180395 643.44284928 110.60885473 643.07163835 111.3373313 C642.38347554 112.68704288 641.69301764 114.03558768 640.999861 115.38274145 C640.01884799 117.29201337 639.05490434 119.20933111 638.10093522 121.13225317 C637.44093522 121.13225317 636.78093522 121.13225317 636.10093522 121.13225317 C635.77093522 122.26662817 635.44093522 123.40100317 635.10093522 124.56975317 C632.52447444 132.38711222 628.67625725 139.73532803 625.10093522 147.13225317 C624.44093522 147.13225317 623.78093522 147.13225317 623.10093522 147.13225317 C622.77093522 148.12225317 622.44093522 149.11225317 622.10093522 150.13225317 C554.45093522 150.13225317 486.80093522 150.13225317 417.10093522 150.13225317 C417.27495866 193.71158911 417.27495866 193.71158911 417.45249772 238.17131567 C417.50359121 256.57366538 417.55220573 274.97597147 417.58921647 293.37834692 C417.60879343 303.04745671 417.62899774 312.71656488 417.65025163 322.38567114 C417.65420786 324.20331883 417.65420786 324.20331883 417.65824401 326.05768669 C417.70166648 345.58791073 417.78046515 365.11783855 417.87246318 384.6478873 C417.96617616 404.71021522 418.02156467 424.7723887 418.04182017 444.83492649 C418.05550069 457.20192927 418.09861343 469.56809496 418.18009989 481.93483989 C418.23320435 490.43003772 418.2488814 498.92480658 418.23594899 507.4201581 C418.22958125 512.31245035 418.23892284 517.20328623 418.29298997 522.09531546 C418.5088607 542.59374918 418.68569224 560.25911188 407.10093522 578.13225317 C406.44093522 578.13225317 405.78093522 578.13225317 405.10093522 578.13225317 C404.77093522 579.26662817 404.44093522 580.40100317 404.10093522 581.56975317 C401.52447444 589.38711222 397.67625725 596.73532803 394.10093522 604.13225317 C393.44093522 604.13225317 392.78093522 604.13225317 392.10093522 604.13225317 C391.77093522 605.28725317 391.44093522 606.44225317 391.10093522 607.63225317 C388.62538941 615.15549727 384.72612439 622.11436915 381.10093522 629.13225317 C380.44093522 629.13225317 379.78093522 629.13225317 379.10093522 629.13225317 C378.75031022 630.30787817 378.39968522 631.48350317 378.03843522 632.69475317 C375.70138117 639.77398485 372.32620941 646.42545013 369.10093522 653.13225317 C368.44093522 653.13225317 367.78093522 653.13225317 367.10093522 653.13225317 C366.86632585 653.9082688 366.63171647 654.68428442 366.38999772 655.48381567 C364.69202216 660.28960106 362.59139668 664.87307041 360.47593522 669.50725317 C360.05570085 670.43408911 359.63546647 671.36092505 359.20249772 672.31584692 C358.1712864 674.58919916 357.13736659 676.86127723 356.10093522 679.13225317 C355.44093522 679.13225317 354.78093522 679.13225317 354.10093522 679.13225317 C353.83152116 679.99463598 353.5621071 680.8570188 353.28452897 681.74553442 C352.11724324 685.08558962 350.7400753 688.15443759 349.16343522 691.31975317 C348.65941178 692.34455786 348.15538835 693.36936255 347.63609147 694.42522192 C346.29086278 696.79734274 345.22424401 698.44864865 343.10093522 700.13225317 C342.44093522 700.13225317 341.78093522 700.13225317 341.10093522 700.13225317 C341.10093522 700.79225317 341.10093522 701.45225317 341.10093522 702.13225317 C338.79093522 702.13225317 336.48093522 702.13225317 334.10093522 702.13225317 C334.10093522 701.47225317 334.10093522 700.81225317 334.10093522 700.13225317 C333.50281022 699.86412817 332.90468522 699.59600317 332.28843522 699.31975317 C328.16455797 697.08107695 326.52774981 694.32208201 324.62046647 690.09709692 C324.17896256 689.1232102 323.73745866 688.14932348 323.28257585 687.14592505 C322.83075944 686.13078833 322.37894303 685.11565161 321.91343522 684.06975317 C321.45001725 683.05074926 320.98659928 682.03174536 320.50913835 680.98186255 C317.10093522 673.40752011 317.10093522 673.40752011 317.10093522 671.13225317 C316.44093522 671.13225317 315.78093522 671.13225317 315.10093522 671.13225317 C313.4526427 667.52920616 311.80772494 663.92462845 310.16343522 660.31975317 C309.694861 659.29559301 309.22628678 658.27143286 308.74351335 657.21623755 C308.29556413 656.23332739 307.84761491 655.25041723 307.38609147 654.23772192 C306.97238297 653.33175268 306.55867448 652.42578344 306.13242936 651.49236059 C305.10093522 649.13225317 305.10093522 649.13225317 304.10093522 646.13225317 C303.44093522 646.13225317 302.78093522 646.13225317 302.10093522 646.13225317 C300.42479795 642.69929222 298.76167825 639.26018434 297.10093522 635.81975317 C296.6239821 634.84328833 296.14702897 633.86682348 295.65562272 632.8607688 C295.20445085 631.92297583 294.75327897 630.98518286 294.28843522 630.01897192 C293.86948991 629.15489721 293.4505446 628.29082251 293.01890397 627.40056372 C292.10093522 625.13225317 292.10093522 625.13225317 292.10093522 622.13225317 C291.44093522 622.13225317 290.78093522 622.13225317 290.10093522 622.13225317 C288.26148897 618.17673214 286.43041969 614.21739032 284.60093522 610.25725317 C283.81396256 608.56535864 283.81396256 608.56535864 283.01109147 606.83928442 C282.51480241 605.76291723 282.01851335 604.68655005 281.50718522 603.57756567 C281.04634538 602.58257055 280.58550553 601.58757544 280.11070085 600.56242895 C279.10093522 598.13225317 279.10093522 598.13225317 279.10093522 596.13225317 C278.44093522 596.13225317 277.78093522 596.13225317 277.10093522 596.13225317 C264.8108645 578.94886757 266.86687909 558.94722642 267.05634463 538.82714975 C267.09552863 533.60112856 267.08203623 528.3751953 267.07522416 523.14906836 C267.07052483 514.11404092 267.09855244 505.07960237 267.14936471 496.04472303 C267.22278026 482.98221285 267.24597537 469.91998488 267.25725663 456.85729077 C267.27691187 435.65963998 267.33669057 414.46230243 267.42198014 393.26482153 C267.50470156 372.68410795 267.56824998 352.10348016 267.60655046 331.52263403 C267.60896243 330.23925219 267.61137441 328.95587035 267.61385947 327.63359815 C267.63257634 317.59540897 267.65018794 307.55721793 267.66745055 297.51902616 C267.75222023 248.38981425 267.9333155 199.26138726 268.10093522 150.13225317 C196.82093522 150.13225317 125.54093522 150.13225317 52.10093522 150.13225317 C48.10093522 142.13225317 48.10093522 142.13225317 48.10093522 140.13225317 C47.44093522 140.13225317 46.78093522 140.13225317 46.10093522 140.13225317 C44.26148897 136.17673214 42.43041969 132.21739032 40.60093522 128.25725317 C40.07628678 127.12932348 39.55163835 126.0013938 39.01109147 124.83928442 C38.51480241 123.76291723 38.01851335 122.68655005 37.50718522 121.57756567 C37.04634538 120.58257055 36.58550553 119.58757544 36.11070085 118.56242895 C35.10093522 116.13225317 35.10093522 116.13225317 35.10093522 114.13225317 C34.44093522 114.13225317 33.78093522 114.13225317 33.10093522 114.13225317 C31.26148897 110.17673214 29.43041969 106.21739032 27.60093522 102.25725317 C27.07628678 101.12932348 26.55163835 100.0013938 26.01109147 98.83928442 C25.51480241 97.76291723 25.01851335 96.68655005 24.50718522 95.57756567 C24.04634538 94.58257055 23.58550553 93.58757544 23.11070085 92.56242895 C22.10093522 90.13225317 22.10093522 90.13225317 22.10093522 88.13225317 C21.44093522 88.13225317 20.78093522 88.13225317 20.10093522 88.13225317 C19.87430192 87.61316381 19.64766862 87.09407446 19.41416764 86.55925512 C18.37574547 84.18621032 17.3321396 81.81547924 16.28843522 79.44475317 C15.75379655 78.21982153 15.75379655 78.21982153 15.2083571 76.9701438 C13.38677241 72.84233262 11.44245901 68.9953981 9.10093522 65.13225317 C9.10093522 64.47225317 9.10093522 63.81225317 9.10093522 63.13225317 C8.44093522 63.13225317 7.78093522 63.13225317 7.10093522 63.13225317 C5.4281822 59.51003106 3.76377271 55.88403657 2.10093522 52.25725317 C1.6239821 51.22471411 1.14702897 50.19217505 0.65562272 49.12834692 C0.20445085 48.14221411 -0.24672103 47.1560813 -0.71156478 46.14006567 C-1.13051009 45.22885962 -1.5494554 44.31765356 -1.98109603 43.3788352 C-2.89906478 41.13225317 -2.89906478 41.13225317 -2.89906478 39.13225317 C-3.55906478 39.13225317 -4.21906478 39.13225317 -4.89906478 39.13225317 C-6.59775735 35.68878648 -8.25173595 32.22554819 -9.89906478 28.75725317 C-10.61449447 27.30899145 -10.61449447 27.30899145 -11.34437728 25.83147192 C-14.23028218 19.68861721 -16.32865863 13.97466638 -14.89906478 7.13225317 C-12.8509742 4.03948356 -10.70879525 1.69308628 -7.09881102 0.57435688 C-4.67746509 0.08771619 -2.47005704 0.00406875 0 0 Z " fill="#FF9137" transform="translate(1130.8990647792816,636.8677468299866)"/>
<path d="M0 0 C140.25 0 280.5 0 425 0 C425 146 425 146 407 189 C404.050625 196.05375 401.10125 203.1075 398.0625 210.375 C389.16564316 231.63931417 380.19952625 252.87418652 371.22375488 274.10528564 C367.86491697 282.05040313 364.50704346 289.99592758 361.15036011 297.94195557 C359.99014024 300.68791337 358.82920699 303.43356869 357.66821289 306.17919922 C352.06791644 319.43499233 346.53491191 332.71621142 341 346 C368.72 346 396.44 346 425 346 C425 388.9 425 431.8 425 476 C370.55 476.495 370.55 476.495 315 477 C317.97 482.61 320.94 488.22 324 494 C325.53481048 497.32826802 327.01392499 500.60989872 328.40234375 503.9921875 C328.76211807 504.84938385 329.1218924 505.7065802 329.49256897 506.5897522 C330.6483722 509.34844049 331.79299696 512.11160709 332.9375 514.875 C333.76422088 516.85383042 334.59171149 518.83233941 335.41992188 520.81054688 C337.12138013 524.87808209 338.818357 528.94743915 340.51123047 533.01855469 C342.85470757 538.65385619 345.20841839 544.2848195 347.56640625 549.9140625 C347.9344487 550.79277512 348.30249115 551.67148773 348.6816864 552.576828 C349.42030406 554.34028135 350.15894632 556.10372439 350.89761353 557.86715698 C351.99987953 560.49971228 353.10105659 563.13272048 354.2019043 565.76586914 C359.85804454 579.29264182 365.54667324 592.80555962 371.25 606.3125 C371.64864258 607.25689941 372.04728516 608.20129883 372.45800781 609.17431641 C373.23106569 611.00542898 374.00437429 612.83643574 374.7779541 614.66732788 C375.50887688 616.39726533 376.23928047 618.12742226 376.96911621 619.8578186 C378.58314006 623.67865274 380.20909131 627.49285076 381.87695312 631.29052734 C382.1613324 631.94111618 382.44571167 632.59170502 382.7387085 633.26200867 C383.48629487 634.96728305 384.2404202 636.66968676 384.99511719 638.37182617 C386 641 386 641 386 644 C348.05 644 310.1 644 271 644 C268.09628146 638.19256293 265.34797246 632.68209243 262.8984375 626.73046875 C262.62465775 626.06891785 262.35087799 625.40736694 262.06880188 624.72576904 C261.47779828 623.29696823 260.88836539 621.86751686 260.30038452 620.43746948 C258.66027064 616.44971511 257.00711559 612.46736321 255.35546875 608.484375 C255.00496964 607.63838242 254.65447052 606.79238983 254.29335022 605.92076111 C250.13976995 595.90593091 245.9124809 585.92236101 241.6875 575.9375 C235.42804798 561.13756638 229.19667376 546.32632743 223 531.5 C216.86425742 516.82017579 210.69574802 502.15459846 204.5 487.5 C197.92903283 471.95790807 191.39268039 456.40180476 184.88525391 440.83300781 C179.12030072 427.04253337 173.32052861 413.26710436 167.5 399.5 C161.30425137 384.8454001 155.13604942 370.17969674 149 355.5 C142.88133517 340.86346957 136.73629907 326.23836327 130.5625 311.625 C130.16918488 310.69399475 129.77586975 309.7629895 129.37063599 308.80377197 C126.58138978 302.20210631 123.79084505 295.60098988 121 289 C117.81160436 281.45871164 114.62379007 273.91717827 111.4375 266.375 C111.04410431 265.44383362 110.65070862 264.51266724 110.24539185 263.55328369 C104.09502691 248.99226434 97.98096795 234.4163152 91.88497925 219.8324585 C86.12012675 206.04216307 80.32044919 192.2669165 74.5 178.5 C67.92903283 162.95790807 61.39268039 147.40180476 54.88525391 131.83300781 C49.12030045 118.04253271 43.3203909 104.26716301 37.5 90.5 C28.93057247 70.22892909 20.41757107 49.93461562 11.93408203 29.62744141 C10.43580088 26.0415175 8.93493196 22.45668796 7.43232727 18.87257385 C6.24528709 16.04057842 5.06030747 13.20772099 3.875 10.375 C3.46693115 9.40328857 3.0588623 8.43157715 2.63842773 7.43041992 C2.28079346 6.57424072 1.92315918 5.71806152 1.5546875 4.8359375 C1.25030762 4.10938965 0.94592773 3.3828418 0.63232422 2.63427734 C0 1 0 1 0 0 Z " fill="#3FF5A6" transform="translate(414,641)"/>
<path d="M0 0 C30.69 0 61.38 0 93 0 C99.88342893 14.91409602 99.88342893 14.91409602 102.85546875 22.09375 C103.19455765 22.90674561 103.53364655 23.71974121 103.88301086 24.55737305 C104.60891404 26.2983158 105.3337625 28.03969866 106.05761719 29.78149414 C108.03705102 34.54402562 110.02488289 39.30305289 112.01171875 44.0625 C112.42304047 45.04835083 112.83436218 46.03420166 113.25814819 47.04992676 C117.64023827 57.54676247 122.06882957 68.02381314 126.5 78.5 C133.07164505 94.04180367 139.60732089 109.59819829 146.11474609 125.16699219 C151.87969928 138.95746663 157.67947139 152.73289564 163.5 166.5 C169.69574863 181.1545999 175.86395058 195.82030326 182 210.5 C188.11866483 225.13653043 194.26370093 239.76163673 200.4375 254.375 C200.83081512 255.30600525 201.22413025 256.2370105 201.62936401 257.19622803 C204.41861022 263.79789369 207.20915495 270.39901012 210 277 C213.18839564 284.54128836 216.37620993 292.08282173 219.5625 299.625 C219.95589569 300.55616638 220.34929138 301.48733276 220.75460815 302.44671631 C226.90497309 317.00773566 233.01903205 331.5836848 239.11502075 346.1675415 C244.87987325 359.95783693 250.67955081 373.7330835 256.5 387.5 C263.07096717 403.04209193 269.60731961 418.59819524 276.11474609 434.16699219 C281.87969928 447.95746663 287.67947139 461.73289564 293.5 475.5 C299.69574863 490.1545999 305.86395058 504.82030326 312 519.5 C318.11866498 534.13653077 324.26377142 548.7616067 330.4375 563.375 C331.02049362 564.75505722 331.02049362 564.75505722 331.61526489 566.16299438 C335.28200422 574.84203839 338.95115033 583.52006434 342.62109375 592.19775391 C344.80787643 597.36852396 346.99378171 602.53966426 349.17922974 607.71099854 C350.40510804 610.61087518 351.63209536 613.51028083 352.85913086 616.40966797 C353.61317546 618.19366082 354.36716592 619.97767655 355.12109375 621.76171875 C355.62298218 622.94632439 355.62298218 622.94632439 356.13500977 624.15486145 C357.09720937 626.43364113 358.05031914 628.71597682 359 631 C359.3728714 631.88813385 359.7457428 632.7762677 360.12991333 633.6913147 C360.49704437 634.5818454 360.86417542 635.4723761 361.24243164 636.38989258 C361.57868057 637.19985184 361.9149295 638.0098111 362.2613678 638.84431458 C363 641 363 641 363 644 C320.43 644 277.86 644 234 644 C221.4044658 615.37378592 221.4044658 615.37378592 215.5 601.0625 C214.22924231 597.9916158 212.9567166 594.92146683 211.68359375 591.8515625 C211.37332748 591.10287399 211.06306122 590.35418549 210.74339294 589.58280945 C208.72352549 584.71718957 206.67308403 579.86559973 204.59765625 575.0234375 C204.08203125 573.8180835 203.56640625 572.61272949 203.03515625 571.37084961 C202.07740969 569.13796004 201.11539709 566.90689382 200.1484375 564.67797852 C199.72949219 563.70014404 199.31054688 562.72230957 198.87890625 561.71484375 C198.5135376 560.87042725 198.14816895 560.02601074 197.77172852 559.15600586 C197 557 197 557 197 554 C169.94 554 142.88 554 115 554 C115 583.7 115 613.4 115 644 C77.05 644 39.1 644 0 644 C0 431.48 0 218.96 0 0 Z " fill="#3EF4A5" transform="translate(195,641)"/>
<path d="M0 0 C46.53 0 93.06 0 141 0 C138.98613022 6.04160933 136.90963227 11.86145545 134.4375 17.703125 C134.09416626 18.5217804 133.75083252 19.34043579 133.39709473 20.18389893 C132.26792074 22.87395285 131.13400497 25.56197945 130 28.25 C129.19570561 30.16330305 128.39167436 32.07671674 127.58789062 33.99023438 C125.06373086 39.99565914 122.53275453 45.99819575 120 52 C119.59813477 52.95237549 119.19626953 53.90475098 118.78222656 54.88598633 C115.23362441 63.29472502 111.68256774 71.70242592 108.12915039 80.10913086 C102.93002414 92.41187489 97.75267444 104.72357138 92.59619141 117.04425049 C91.45536129 119.76982728 90.31364998 122.49503376 89.171875 125.22021484 C85.99810639 132.79985786 82.83395347 140.38275639 79.72265625 147.98828125 C79.252229 149.13385498 78.78180176 150.27942871 78.29711914 151.4597168 C77.46351818 153.49390397 76.6354106 155.53035573 75.81420898 157.56958008 C75.46302002 158.42575928 75.11183105 159.28193848 74.75 160.1640625 C74.45609375 160.89061035 74.1621875 161.6171582 73.859375 162.36572266 C73 164 73 164 71 165 C62.98536321 146.41572475 55.05010853 127.8004077 47.25 109.125 C38.23346737 87.53980431 29.15703807 65.98043996 20.03308105 44.44042969 C19.05891976 42.13918514 18.08626945 39.83730946 17.11425781 37.53515625 C15.49833031 33.70859094 13.87493823 29.88524768 12.25 26.0625 C11.58895264 24.49447632 11.58895264 24.49447632 10.91455078 22.89477539 C7.57174285 15.06307225 3.82968829 7.65937659 0 0 Z " fill="#000000" transform="translate(578,771)"/>
<path d="M0 0 C2.84731991 2.84731991 3.95900219 6.3496732 5.46484375 10.01953125 C5.81000031 10.84904297 6.15515686 11.67855469 6.51077271 12.53320312 C7.65741233 15.29116531 8.79733133 18.05185713 9.9375 20.8125 C11.1502075 23.73334413 12.36477088 26.65341179 13.57951355 29.57341003 C14.42494262 31.60575207 15.26983247 33.6383185 16.11421204 35.6710968 C21.09606268 47.65724893 26.16003256 59.60863297 31.22702026 71.55899048 C35.54882859 81.75393339 39.83724348 91.96221584 44.05859375 102.19921875 C44.45337418 103.1499678 44.8481546 104.10071686 45.25489807 105.08027649 C45.61478317 105.95701523 45.97466827 106.83375397 46.34545898 107.73706055 C46.66562485 108.51341354 46.98579071 109.28976654 47.31565857 110.08964539 C48 112 48 112 48 114 C32.16 114 16.32 114 0 114 C0 76.38 0 38.76 0 0 Z " fill="#000000" transform="translate(310,1003)"/>
</svg>
