<?xml version="1.0" encoding="UTF-8"?>
<svg version="1.1" xmlns="http://www.w3.org/2000/svg" width="4096" height="4096">
<path d="M0 0 C146.52 0 293.04 0 444 0 C444.33 18.81 444.66 37.62 445 57 C446.13663613 68.4763583 447.31928059 79.6408737 449 91 C449.66 96.28 450.32 101.56 451 107 C491.26 107 531.52 107 573 107 C573.33 126.14 573.66 145.28 574 165 C575.34275031 178.46699571 576.77108326 191.68721759 579 205 C579.12717407 205.77375977 579.25434814 206.54751953 579.38537598 207.34472656 C589.29620018 267.52491797 607.39336368 327.6387172 635.83007812 381.75439453 C637.29907973 384.57406832 638.73409347 387.41037586 640.171875 390.24609375 C647.26413229 404.17059501 654.65988453 417.78287698 663 431 C663.77077881 432.22227295 663.77077881 432.22227295 664.55712891 433.46923828 C679.02078007 456.27918584 694.64668738 478.29090741 712 499 C712.43022461 499.5151416 712.86044922 500.0302832 713.30371094 500.56103516 C716.07644307 503.87788399 718.86906812 507.17661879 721.68310547 510.45849609 C722.91332175 511.89853791 724.13098454 513.34927773 725.34765625 514.80078125 C726.44400391 516.07501953 726.44400391 516.07501953 727.5625 517.375 C728.18253906 518.10460937 728.80257812 518.83421875 729.44140625 519.5859375 C736.97704932 526.69590302 746.21300555 531.57355447 755.25 536.5 C756.18540619 537.01223618 756.18540619 537.01223618 757.13970947 537.53482056 C829.33481559 577.0163413 908.01429223 603.35689574 1005.125 613.6875 C1006.38900635 613.80706055 1007.6530127 613.92662109 1008.95532227 614.04980469 C1025.3038386 615.43027049 1041.54288508 615.52979672 1058 616 C1058 647.02 1058 678.04 1058 710 C1101.70482865 717.53531529 1142.53522831 721.59649883 1187 724 C1187 869.53 1187 1015.06 1187 1165 C1148.21351748 1165 1148.21351748 1165 1134.75 1164.25 C1133.94490997 1164.20743073 1133.13981995 1164.16486145 1132.31033325 1164.1210022 C1046.35969363 1159.532956 961.39412349 1144.89895772 767 1079 C765.8130957 1078.48501953 764.62619141 1077.97003906 763.40332031 1077.43945312 C736.24468304 1065.59628603 709.36842306 1052.91918066 683.52734375 1038.40625 C680.91672689 1036.95366566 678.28996404 1035.53523762 675.65625 1034.125 C650.02751325 1020.38335152 625.3958031 1004.96625362 601.1875 988.875 C600.09066895 988.14692139 598.99383789 987.41884277 597.86376953 986.66870117 C592.03608255 982.77586216 586.28130274 978.80409223 580.5871582 974.71923828 C579.63025967 974.03420982 579.63025967 974.03420982 578.65402985 973.33534241 C577.10218937 972.22425571 575.55102291 971.11222771 574 970 C573.99959982 970.80514537 573.99919963 971.61029075 573.99878732 972.43983447 C573.95507524 1060.17377246 573.9076469 1147.90770814 573.84101868 1235.64163208 C573.84002311 1236.95393829 573.83902754 1238.26624449 573.83800181 1239.61831755 C573.81686667 1267.44923814 573.79513721 1295.28015823 573.77269462 1323.11107779 C573.76141969 1337.09385807 573.75026203 1351.07663845 573.73921531 1365.05941891 C573.73754839 1367.16851738 573.73587813 1369.27761585 573.73420772 1371.38671432 C573.70855028 1403.81967691 573.6853902 1436.25263889 573.66955566 1468.68560791 C573.6692158 1469.38163178 573.66887594 1470.07765565 573.66852577 1470.79477115 C573.66306237 1482.01496205 573.65781077 1493.23515304 573.65258733 1504.45534405 C573.63751784 1536.81836825 573.62085236 1569.18138819 573.59387684 1601.54440498 C573.59304385 1602.54512922 573.59304385 1602.54512922 573.59219403 1603.56607011 C573.58051718 1617.56198883 573.56817009 1631.55790687 573.55500887 1645.55382428 C573.54884739 1652.1108759 573.54279678 1658.66792762 573.53681374 1665.2249794 C573.53563285 1666.51539333 573.53445197 1667.80580727 573.53323531 1669.13532465 C573.51457577 1689.83627362 573.50611018 1710.53721458 573.50153876 1731.23817093 C573.49671289 1752.09269511 573.48095237 1772.94718901 573.45433434 1793.80169694 C573.43887981 1806.16378122 573.43150463 1818.52580562 573.43623071 1830.887899 C573.43856928 1839.18173833 573.42982653 1847.47552175 573.41267589 1855.76934346 C573.40325086 1860.47198361 573.39806643 1865.17450026 573.40660437 1869.87714504 C573.43805886 1889.05700654 573.00189317 1908.11027367 571.61570454 1927.24511909 C571.52353969 1928.51886198 571.52353969 1928.51886198 571.42951292 1929.81833704 C565.4827482 2010.24079343 547.07632373 2089.06209676 490 2227 C489.63068359 2227.7537793 489.26136719 2228.50755859 488.88085938 2229.28417969 C486.96512204 2233.19074539 485.02080871 2237.08129513 483.04248047 2240.95654297 C482.3091334 2242.39404061 481.5793056 2243.83333638 480.85205078 2245.27392578 C472.93128166 2260.92890699 464.10433283 2276.01195929 455 2291 C454.36513672 2292.04655762 453.73027344 2293.09311523 453.07617188 2294.17138672 C443.93395049 2309.17883408 434.19425116 2323.68919313 424 2338 C423.40912598 2338.83321777 422.81825195 2339.66643555 422.20947266 2340.52490234 C415.07620313 2350.57218836 407.72647138 2360.40180079 400 2370 C399.48969238 2370.63647461 398.97938477 2371.27294922 398.45361328 2371.92871094 C390.81649707 2381.44433947 383.00013271 2390.78791382 375 2400 C374.34386719 2400.75796875 373.68773438 2401.5159375 373.01171875 2402.296875 C368.40665616 2407.5900504 363.71316319 2412.80308366 359 2418 C358.16718506 2418.91966553 357.33437012 2419.83933105 356.47631836 2420.78686523 C348.83098883 2429.17546649 340.89925306 2437.25542709 332.86230469 2445.26806641 C330.73515216 2447.38981009 328.61346439 2449.51691491 326.4921875 2451.64453125 C325.11490417 2453.0211544 323.73731101 2454.39746766 322.359375 2455.7734375 C321.427836 2456.70801285 321.427836 2456.70801285 320.47747803 2457.66146851 C316.70557352 2461.41360068 312.81699659 2464.97921287 308.78614807 2468.45196533 C306.19419614 2470.69838124 303.69733915 2473.03716381 301.1875 2475.375 C296.56700451 2479.64395194 291.80893248 2483.68031294 286.90625 2487.625 C284.19858829 2489.83771279 281.54835091 2492.10119835 278.90722656 2494.39208984 C272.41985567 2500.01744022 265.7891945 2505.39577725 258.92285156 2510.55419922 C256.72265367 2512.20853796 254.52951721 2513.87205296 252.3359375 2515.53515625 C236.90546588 2527.20367199 221.21454973 2538.44496603 205 2549 C204.20529297 2549.51788086 203.41058594 2550.03576172 202.59179688 2550.56933594 C160.99102254 2577.58303057 116.91414696 2601.1785915 71 2620 C70.33560913 2620.27374451 69.67121826 2620.54748901 68.98669434 2620.82952881 C33.21474781 2635.55257616 -3.6043819 2647.84151883 -41.18115234 2657.06201172 C-43.66538576 2657.67219103 -46.14762323 2658.29057468 -48.62744141 2658.91845703 C-84.68170158 2668.04241251 -121.57053345 2673.99928009 -158.55389404 2677.75 C-160.91197637 2677.9910037 -163.26871135 2678.24268634 -165.62548828 2678.49609375 C-215.76340175 2683.77512988 -268.76694292 2683.67522953 -318.88201904 2678.22784424 C-321.03520661 2677.99621261 -323.18938062 2677.77751559 -325.34423828 2677.56201172 C-381.69057476 2671.88482585 -437.05185438 2660.1158839 -491 2643 C-492.17900879 2642.62762207 -493.35801758 2642.25524414 -494.57275391 2641.87158203 C-536.72037425 2628.46508378 -578.55997645 2611.48184312 -617.43261719 2590.38525391 C-620.30263978 2588.83670805 -623.18577143 2587.31429242 -626.0703125 2585.79296875 C-641.36197674 2577.69534794 -656.28358519 2569.1000866 -671 2560 C-671.95922363 2559.40687012 -672.91844727 2558.81374023 -673.90673828 2558.20263672 C-705.12702793 2538.80440153 -735.13897482 2516.97853439 -763.11767578 2493.13037109 C-766.49264725 2490.25744517 -769.91267295 2487.45530379 -773.375 2484.6875 C-778.64826087 2480.402493 -783.59381939 2475.80695987 -788.52294922 2471.13549805 C-791.55330653 2468.26573571 -794.60975288 2465.46285937 -797.78515625 2462.75390625 C-804.07215341 2457.29712389 -809.75436725 2451.18295078 -815.515625 2445.18164062 C-821.83177241 2438.7457348 -828.36992138 2433.77467162 -836 2429 C-862.9800973 2410.64787184 -888.64900977 2389.91287401 -912.79296875 2367.9921875 C-914.73626001 2366.23806619 -916.70359448 2364.52027306 -918.6875 2362.8125 C-930.4040016 2352.5404986 -941.47580372 2341.62766604 -952.5 2330.625 C-953.42093445 2329.70794785 -953.42093445 2329.70794785 -954.36047363 2328.77236938 C-966.23423349 2316.93805658 -966.23423349 2316.93805658 -971.54980469 2310.6953125 C-973.9032005 2307.94413732 -976.39866992 2305.32755783 -978.875 2302.6875 C-983.3337948 2297.89485085 -987.56120791 2292.97810172 -991.66015625 2287.87109375 C-993.85834372 2285.17381864 -996.11011362 2282.53734457 -998.38989258 2279.90942383 C-1004.02006122 2273.41772126 -1009.40103732 2266.78135875 -1014.56298828 2259.90966797 C-1016.18963846 2257.7479864 -1017.82737024 2255.59489967 -1019.46484375 2253.44140625 C-1031.89434378 2237.04155206 -1043.79126336 2220.2595473 -1055 2203 C-1055.67530762 2201.96020996 -1055.67530762 2201.96020996 -1056.36425781 2200.89941406 C-1102.81385397 2129.04421287 -1137.48729012 2049.94278473 -1183.23828125 1826.40625 C-1183.30153091 1825.70555389 -1183.36478058 1825.00485779 -1183.4299469 1824.28292847 C-1184.63277192 1810.2824231 -1185.16614379 1796.3283148 -1185.203125 1782.28125 C-1185.21014624 1780.62337721 -1185.21723307 1778.9655047 -1185.22438049 1777.30763245 C-1185.24378331 1772.03841768 -1185.24881454 1766.76924689 -1185.25 1761.5 C-1185.25044186 1760.60250408 -1185.25088371 1759.70500816 -1185.25133896 1758.7803154 C-1185.25803453 1732.85554606 -1185.1251 1707.06638013 -1182.25 1681.27105713 C-1181.98738324 1678.88538651 -1181.74040476 1676.49845138 -1181.49609375 1674.11083984 C-1177.34123371 1633.87642994 -1170.08286384 1594.16305941 -1160 1555 C-1159.81284424 1554.26706726 -1159.62568848 1553.53413452 -1159.43286133 1552.7789917 C-1142.16808447 1485.23961831 -1115.64838509 1419.21132726 -1080.66796875 1358.87841797 C-1078.9568379 1355.92551505 -1077.25925529 1352.96508895 -1075.5625 1350.00390625 C-1063.66582614 1329.32750372 -1050.87090118 1309.40414567 -1037 1290 C-1035.90754627 1288.46094163 -1034.81509826 1286.92187919 -1033.72265625 1285.3828125 C-1016.33454883 1260.99477612 -997.49659879 1237.52470411 -977.23828125 1215.45703125 C-975.24682664 1213.27094931 -973.30327487 1211.05417394 -971.375 1208.8125 C-968.46512695 1205.45863224 -965.38117443 1202.33354773 -962.1875 1199.25 C-960.30299101 1197.31164789 -958.54135534 1195.33163123 -956.77734375 1193.28515625 C-952.89004813 1188.81160715 -948.76315539 1184.61546958 -944.5625 1180.4375 C-943.85029297 1179.72142578 -943.13808594 1179.00535156 -942.40429688 1178.26757812 C-938.31053447 1174.18125217 -934.11107944 1170.28815305 -929.73022461 1166.51196289 C-927.72533353 1164.75998173 -925.84905277 1162.91509037 -924 1161 C-920.16445447 1157.1200273 -916.14755921 1153.54142986 -912 1150 C-910.94635615 1149.09405048 -909.89299323 1148.18777417 -908.83984375 1147.28125 C-905.82762101 1144.69042409 -902.80777905 1142.10863295 -899.78613281 1139.52880859 C-898.12117836 1138.10372046 -896.46223918 1136.67196522 -894.8046875 1135.23828125 C-886.84302536 1128.3840355 -878.57094515 1121.99236208 -870.18945312 1115.66162109 C-868.02856712 1114.02168017 -865.8796628 1112.36731034 -863.734375 1110.70703125 C-800.98555049 1062.18870495 -730.20202841 1023.82320055 -656 996 C-654.80149414 995.55060059 -653.60298828 995.10120117 -652.36816406 994.63818359 C-572.8218973 965.07834626 -488.38592942 948.8078098 -286.6875 949 C-285.81460327 949.08358765 -284.94170654 949.16717529 -284.0423584 949.2532959 C-281.55220707 949.49510982 -279.06310886 949.74556 -276.57421875 950 C-275.85294296 950.07083801 -275.13166718 950.14167603 -274.38853455 950.21466064 C-268.78724355 950.80663834 -263.59124551 951.8817509 -258 953 C-258 986 -258 1019 -258 1053 C-256.35 1052.67 -254.7 1052.34 -253 1052 C-222.21572116 1049.90307431 -190.00384374 1052.97236982 -159.375 1056 C-158.52486328 1056.08358765 -157.67472656 1056.16717529 -156.79882812 1056.2532959 C-154.37293127 1056.49534113 -151.94803965 1056.74533427 -149.5234375 1057 C-148.49021866 1057.10625702 -148.49021866 1057.10625702 -147.43612671 1057.21466064 C-141.22287467 1057.89332164 -135.1992776 1058.96678707 -129 1060 C-129 1208.83 -129 1357.66 -129 1511 C-136.84095366 1509.87986376 -136.84095366 1509.87986376 -140.58203125 1508.765625 C-141.83584595 1508.40271362 -141.83584595 1508.40271362 -143.11499023 1508.0324707 C-144.00516846 1507.77425537 -144.89534668 1507.51604004 -145.8125 1507.25 C-165.81693827 1501.64455617 -186.34451616 1498.13977411 -207 1496 C-208.37853149 1495.85643066 -208.37853149 1495.85643066 -209.78491211 1495.70996094 C-258.79186478 1491.27681194 -309.25270481 1496.64680291 -356 1512 C-357.40233887 1512.44980225 -357.40233887 1512.44980225 -358.83300781 1512.90869141 C-412.35428749 1530.17391486 -463.78214609 1560.35315546 -503 1601 C-505.65182164 1603.66944172 -508.32246536 1606.31771508 -511.015625 1608.9453125 C-517.83690076 1615.62921899 -524.08192948 1622.49094134 -530 1630 C-530.88267458 1631.06088123 -531.76823778 1632.11936386 -532.65625 1633.17578125 C-546.14295588 1649.36997562 -557.5822968 1667.31786119 -567.75732422 1685.74951172 C-568.57721551 1687.23433645 -569.40423145 1688.71525226 -570.23876953 1690.19189453 C-616.51395898 1772.21269926 -625.72840834 1874.41767447 -601.01123047 1964.60791016 C-590.15635172 2002.59238786 -574.18860006 2040.09061134 -551.3671875 2072.515625 C-549.7560536 2074.81429642 -548.37011381 2077.12244866 -547.0703125 2079.609375 C-539.80633563 2092.67566404 -526.33782145 2096.82811545 -513 2102 C-511.90478027 2102.42684082 -510.80956055 2102.85368164 -509.68115234 2103.29345703 C-502.51425205 2106.04695869 -495.28942208 2108.59087889 -488 2111 C-487.13745605 2111.28568848 -486.27491211 2111.57137695 -485.38623047 2111.86572266 C-467.08175562 2117.83527716 -448.24015714 2122.1346027 -429.25 2125.25 C-428.34290283 2125.40098145 -427.43580566 2125.55196289 -426.5012207 2125.70751953 C-408.54972694 2128.48615577 -390.51910933 2129.41233589 -372.375 2129.375 C-371.36552307 2129.37445618 -370.35604614 2129.37391235 -369.315979 2129.37335205 C-309.50169225 2129.22672828 -252.16925062 2114.22450043 -199 2087 C-198.0497998 2086.5138623 -197.09959961 2086.02772461 -196.12060547 2085.52685547 C-169.07506394 2071.52920895 -144.07021291 2053.25755551 -121.77734375 2032.55859375 C-119.51069545 2030.4704719 -117.21667109 2028.43993504 -114.875 2026.4375 C-107.31730977 2019.86969435 -100.48595005 2012.61225276 -94 2005 C-93.10904375 2003.98352323 -92.21702661 2002.96797582 -91.32421875 2001.953125 C-45.52909023 1949.6385511 -15.55723917 1884.33994458 -4.75 1815.75 C-4.52328613 1814.31720703 -4.52328613 1814.31720703 -4.29199219 1812.85546875 C-1.33674406 1792.81581776 -0.70225249 1772.889265 -0.735956 1752.66221669 C-0.74000242 1748.87126517 -0.73228431 1745.08033244 -0.72617769 1741.28938615 C-0.71704313 1734.63992476 -0.7152086 1727.99049329 -0.71827881 1721.3410268 C-0.72283475 1711.38685605 -0.71577949 1701.43271582 -0.70654711 1691.4785495 C-0.69114015 1674.50965596 -0.68510115 1657.54077079 -0.68421364 1640.5718708 C-0.68327608 1623.38479638 -0.67797593 1606.19773145 -0.66738319 1589.01066017 C-0.66671587 1587.92372431 -0.66604854 1586.83678844 -0.665361 1585.71691513 C-0.66193808 1580.17429056 -0.65844447 1574.63166604 -0.6549259 1569.08904153 C-0.62962484 1529.00602956 -0.61392724 1488.92301846 -0.60334396 1448.84000015 C-0.5928368 1409.15217937 -0.5782064 1369.46436359 -0.55806351 1329.77654648 C-0.55743952 1328.54341447 -0.55681554 1327.31028245 -0.55617265 1326.03978281 C-0.55047123 1314.77681018 -0.5447191 1303.51383758 -0.53890612 1292.25086501 C-0.52445716 1264.25397394 -0.51064413 1236.25708257 -0.49726295 1208.26019096 C-0.49634822 1206.34794119 -0.49634822 1206.34794119 -0.49541502 1204.39706011 C-0.46613568 1143.07358243 -0.44401113 1081.75010234 -0.42257814 1020.42662152 C-0.41482508 998.24622666 -0.40703883 976.06583181 -0.39910889 953.88543701 C-0.39887053 953.21844287 -0.39863218 952.55144873 -0.39838661 951.86424265 C-0.37572742 888.48652762 -0.3477123 825.10881533 -0.31831678 761.73110312 C-0.31707171 759.04585014 -0.31582819 756.36059717 -0.31458474 753.6753442 C-0.3019132 726.3113894 -0.28914875 698.94743464 -0.27632002 671.58347992 C-0.25142138 618.47248479 -0.22704999 565.36148943 -0.20304088 512.25049389 C-0.20189754 509.72128326 -0.20075382 507.19207263 -0.19960973 504.662862 C-0.16437603 426.76768408 -0.13152153 348.87250542 -0.10116577 270.97732544 C-0.09994011 267.83567372 -0.09871444 264.69402199 -0.09748857 261.55237027 C-0.06354335 174.36824739 -0.03209587 87.18412357 0 0 Z " fill="#000000" transform="translate(2047,387)"/>
<path d="M0 0 C9.57 1.65 19.14 3.3 29 5 C62.3072445 9.98875028 95.2587941 12.17615103 129 14 C129 159.53 129 305.06 129 455 C90.21351748 455 90.21351748 455 76.75 454.25 C75.94490997 454.20743073 75.13981995 454.16486145 74.31033325 454.1210022 C-11.64030637 449.532956 -96.60587651 434.89895772 -291 369 C-292.1869043 368.48501953 -293.37380859 367.97003906 -294.59667969 367.43945312 C-321.75531696 355.59628603 -348.63157694 342.91918066 -374.47265625 328.40625 C-377.08327311 326.95366566 -379.71003596 325.53523762 -382.34375 324.125 C-407.97248675 310.38335152 -432.6041969 294.96625362 -456.8125 278.875 C-457.90933105 278.14692139 -459.00616211 277.41884277 -460.13623047 276.66870117 C-465.96391745 272.77586216 -471.71869726 268.80409223 -477.4128418 264.71923828 C-478.05077415 264.26255264 -478.68870651 263.805867 -479.34597015 263.33534241 C-480.89781063 262.22425571 -482.44897709 261.11222771 -484 260 C-484.00040018 260.80514537 -484.00080037 261.61029075 -484.00121268 262.43983447 C-484.04492476 350.17377246 -484.0923531 437.90770814 -484.15898132 525.64163208 C-484.15997689 526.95393829 -484.16097246 528.26624449 -484.16199819 529.61831755 C-484.18313333 557.44923814 -484.20486279 585.28015823 -484.22730538 613.11107779 C-484.23858031 627.09385807 -484.24973797 641.07663845 -484.26078469 655.05941891 C-484.26245161 657.16851738 -484.26412187 659.27761585 -484.26579228 661.38671432 C-484.29144972 693.81967691 -484.3146098 726.25263889 -484.33044434 758.68560791 C-484.3307842 759.38163178 -484.33112406 760.07765565 -484.33147423 760.79477115 C-484.33693763 772.01496205 -484.34218923 783.23515304 -484.34741267 794.45534405 C-484.36248216 826.81836825 -484.37914764 859.18138819 -484.40612316 891.54440498 C-484.40667849 892.21155447 -484.40723382 892.87870397 -484.40780597 893.56607011 C-484.41948282 907.56198883 -484.43182991 921.55790687 -484.44499113 935.55382428 C-484.45115261 942.1108759 -484.45720322 948.66792762 -484.46318626 955.2249794 C-484.46436715 956.51539333 -484.46554803 957.80580727 -484.46676469 959.13532465 C-484.48542423 979.83627362 -484.49388982 1000.53721458 -484.49846124 1021.23817093 C-484.50328711 1042.09269511 -484.51904763 1062.94718901 -484.54566566 1083.80169694 C-484.56112019 1096.16378122 -484.56849537 1108.52580562 -484.56376929 1120.887899 C-484.56143072 1129.18173833 -484.57017347 1137.47552175 -484.58732411 1145.76934346 C-484.59674914 1150.47198361 -484.60193357 1155.17450026 -484.59339563 1159.87714504 C-484.56194114 1179.05700654 -484.99810683 1198.11027367 -486.38429546 1217.24511909 C-486.47646031 1218.51886198 -486.47646031 1218.51886198 -486.57048708 1219.81833704 C-492.5172518 1300.24079343 -510.92367627 1379.06209676 -568 1517 C-568.36931641 1517.7537793 -568.73863281 1518.50755859 -569.11914062 1519.28417969 C-571.03487796 1523.19074539 -572.97919129 1527.08129513 -574.95751953 1530.95654297 C-575.6908666 1532.39404061 -576.4206944 1533.83333638 -577.14794922 1535.27392578 C-585.06871834 1550.92890699 -593.89566717 1566.01195929 -603 1581 C-603.63486328 1582.04655762 -604.26972656 1583.09311523 -604.92382812 1584.17138672 C-614.06604951 1599.17883408 -623.80574884 1613.68919313 -634 1628 C-634.59087402 1628.83321777 -635.18174805 1629.66643555 -635.79052734 1630.52490234 C-642.92379687 1640.57218836 -650.27352862 1650.40180079 -658 1660 C-658.51030762 1660.63647461 -659.02061523 1661.27294922 -659.54638672 1661.92871094 C-667.18350293 1671.44433947 -674.99986729 1680.78791382 -683 1690 C-683.65613281 1690.75796875 -684.31226562 1691.5159375 -684.98828125 1692.296875 C-689.59334384 1697.5900504 -694.28683681 1702.80308366 -699 1708 C-699.83281494 1708.91966553 -700.66562988 1709.83933105 -701.52368164 1710.78686523 C-709.16901117 1719.17546649 -717.10074694 1727.25542709 -725.13769531 1735.26806641 C-727.26484784 1737.38981009 -729.38653561 1739.51691491 -731.5078125 1741.64453125 C-732.88509583 1743.0211544 -734.26268899 1744.39746766 -735.640625 1745.7734375 C-736.572164 1746.70801285 -736.572164 1746.70801285 -737.52252197 1747.66146851 C-741.29442648 1751.41360068 -745.18300341 1754.97921287 -749.21385193 1758.45196533 C-751.80580386 1760.69838124 -754.30266085 1763.03716381 -756.8125 1765.375 C-761.43299549 1769.64395194 -766.19106752 1773.68031294 -771.09375 1777.625 C-773.80141171 1779.83771279 -776.45164909 1782.10119835 -779.09277344 1784.39208984 C-785.58014433 1790.01744022 -792.2108055 1795.39577725 -799.07714844 1800.55419922 C-801.27734633 1802.20853796 -803.47048279 1803.87205296 -805.6640625 1805.53515625 C-821.09453412 1817.20367199 -836.78545027 1828.44496603 -853 1839 C-853.79470703 1839.51788086 -854.58941406 1840.03576172 -855.40820312 1840.56933594 C-897.00897746 1867.58303057 -941.08585304 1891.1785915 -987 1910 C-987.66439087 1910.27374451 -988.32878174 1910.54748901 -989.01330566 1910.82952881 C-1024.78525219 1925.55257616 -1061.6043819 1937.84151883 -1099.18115234 1947.06201172 C-1101.66538576 1947.67219103 -1104.14762323 1948.29057468 -1106.62744141 1948.91845703 C-1142.68170158 1958.04241251 -1179.57053345 1963.99928009 -1216.55389404 1967.75 C-1218.91197637 1967.9910037 -1221.26871135 1968.24268634 -1223.62548828 1968.49609375 C-1273.76340175 1973.77512988 -1326.76694292 1973.67522953 -1376.88201904 1968.22784424 C-1379.03520661 1967.99621261 -1381.18938062 1967.77751559 -1383.34423828 1967.56201172 C-1439.69057476 1961.88482585 -1495.05185438 1950.1158839 -1549 1933 C-1550.17900879 1932.62762207 -1551.35801758 1932.25524414 -1552.57275391 1931.87158203 C-1594.72037425 1918.46508378 -1636.55997645 1901.48184312 -1675.43261719 1880.38525391 C-1678.30263978 1878.83670805 -1681.18577143 1877.31429242 -1684.0703125 1875.79296875 C-1699.36197674 1867.69534794 -1714.28358519 1859.1000866 -1729 1850 C-1729.95922363 1849.40687012 -1730.91844727 1848.81374023 -1731.90673828 1848.20263672 C-1763.12702793 1828.80440153 -1793.13897482 1806.97853439 -1821.11767578 1783.13037109 C-1824.49264725 1780.25744517 -1827.91267295 1777.45530379 -1831.375 1774.6875 C-1836.64826087 1770.402493 -1841.59381939 1765.80695987 -1846.52294922 1761.13549805 C-1849.54982898 1758.26902896 -1852.60253616 1755.46530843 -1855.76953125 1752.75390625 C-1861.10345514 1748.12121918 -1866.02979004 1743.07786271 -1871 1738.0625 C-1871.97502386 1737.0824469 -1872.9502828 1736.1026276 -1873.92578125 1735.12304688 C-1876.28616618 1732.75097687 -1878.64416905 1730.3765914 -1881 1728 C-1877.03639679 1728 -1874.99418923 1729.86241044 -1871.875 1732.0625 C-1817.58228986 1769.21657157 -1756.2627536 1797.61823662 -1694.13037109 1818.92529297 C-1691.15092919 1819.94818357 -1688.17883349 1820.99032244 -1685.20703125 1822.03515625 C-1599.80279435 1851.67954161 -1509.17363161 1863.35257223 -1367 1861 C-1366.13368958 1860.92223328 -1365.26737915 1860.84446655 -1364.37481689 1860.76434326 C-1298.1095884 1854.76600431 -1234.12620162 1842.53979971 -1170.89605713 1821.62701416 C-1169.08438507 1821.02790561 -1167.27146942 1820.43256152 -1165.45849609 1819.83740234 C-1118.97572933 1804.4920649 -1073.57298542 1784.15082246 -1031 1760 C-1029.98421875 1759.42958984 -1028.9684375 1758.85917969 -1027.921875 1758.27148438 C-1013.12920488 1749.95507382 -998.74127071 1741.1796997 -984.62939453 1731.75488281 C-982.11183214 1730.07463783 -979.58668124 1728.40654146 -977.05859375 1726.7421875 C-945.84536511 1706.14665339 -915.92142459 1683.18626692 -888.2421875 1658.02734375 C-886.28791576 1656.26032801 -884.30940263 1654.53086471 -882.3125 1652.8125 C-870.92226815 1642.86168477 -860.1088317 1632.27441922 -849.43554688 1621.56591797 C-847.47641344 1619.60134799 -845.51188356 1617.64228552 -843.546875 1615.68359375 C-835.231765 1607.37534289 -835.231765 1607.37534289 -827.38378906 1598.62890625 C-825.2117049 1596.07207041 -822.91157738 1593.64230905 -820.625 1591.1875 C-816.35604806 1586.56700451 -812.31968706 1581.80893248 -808.375 1576.90625 C-806.16228721 1574.19858829 -803.89880165 1571.54835091 -801.60791016 1568.90722656 C-795.97902467 1562.41577884 -790.59835457 1555.78054921 -785.43701172 1548.90966797 C-783.81036154 1546.7479864 -782.17262976 1544.59489967 -780.53515625 1542.44140625 C-754.56407453 1508.17915098 -731.08681609 1472.02493895 -711 1434 C-710.51756836 1433.09540039 -710.03513672 1432.19080078 -709.53808594 1431.25878906 C-675.11212157 1366.69027525 -650.3358582 1298.27739839 -634 1227 C-633.7412207 1225.88834473 -633.48244141 1224.77668945 -633.21582031 1223.63134766 C-628.42421548 1202.91934732 -625.00801266 1182.03478301 -622 1161 C-621.89838562 1160.29462097 -621.79677124 1159.58924194 -621.69207764 1158.86248779 C-621.54648407 1157.84556854 -621.54648407 1157.84556854 -621.39794922 1156.80810547 C-621.31463348 1156.22664764 -621.23131775 1155.64518982 -621.14547729 1155.04611206 C-613.90288361 1102.02367312 -614.54611857 1048.51429694 -614.56622105 995.1271352 C-614.5698128 983.89745421 -614.5556569 972.66781039 -614.54117843 961.43814061 C-614.51494777 940.72594051 -614.50224998 920.01375378 -614.49761391 899.30153847 C-614.49298666 878.83198491 -614.48213028 858.36244979 -614.46318626 837.89290428 C-614.46141607 835.97460671 -614.46141607 835.97460671 -614.45961012 834.01755565 C-614.45358363 827.52127091 -614.44744809 821.02498628 -614.44127061 814.52870169 C-614.42877466 801.32870895 -614.41725074 788.12871538 -614.40612316 774.92872143 C-614.40528841 773.93871905 -614.40528841 773.93871905 -614.40443679 772.92871662 C-614.37754315 740.93579865 -614.36151997 708.94287653 -614.34643555 676.94995117 C-614.34120427 665.86771642 -614.33592451 654.7854817 -614.33044434 643.70324707 C-614.32993449 642.67206239 -614.32993449 642.67206239 -614.32941434 641.62004569 C-614.31350389 609.57528032 -614.28979828 577.53052207 -614.26412141 545.48576321 C-614.26245163 543.40169742 -614.26078519 541.31763162 -614.25911942 539.23356582 C-614.24807364 525.4206814 -614.23689438 511.6077971 -614.2256258 497.79491286 C-614.20267728 469.66342128 -614.18057538 441.53192906 -614.15898132 413.4004364 C-614.1579877 412.10736094 -614.15699409 410.81428547 -614.15597036 409.4820259 C-614.08985959 323.32135956 -614.04336781 237.16068042 -614 151 C-612.26813372 152.08892631 -610.53800754 153.18062037 -608.80859375 154.2734375 C-607.36311157 155.18488525 -607.36311157 155.18488525 -605.88842773 156.11474609 C-603.20419573 157.86672306 -600.62718825 159.70368337 -598.0625 161.625 C-589.65067218 167.82318892 -580.79359318 173.36453958 -572 179 C-571.23155762 179.49516113 -570.46311523 179.99032227 -569.67138672 180.50048828 C-497.40195988 227.03487157 -419.4998553 263.81214567 -132.17230225 338.73822021 C-129.99902983 339.00011691 -127.82683908 339.26969974 -125.65478516 339.54150391 C-83.87021461 344.74962285 -42.18298668 346.13912272 0 347 C0 232.49 0 117.98 0 0 Z " fill="#FD2B54" transform="translate(3105,1097)"/>
<path d="M0 0 C146.52 0 293.04 0 444 0 C444.33 18.81 444.66 37.62 445 57 C446.43101442 71.63327654 448.03706142 85.95454043 450.63500977 100.38549805 C451 103 451 103 451 108 C345.07 108 239.14 108 130 108 C130.00444122 130.12726639 130.00888245 152.25453278 130.01345825 175.05232239 C130.01640288 190.06489563 130.01933899 205.07746886 130.0222168 220.09004211 C130.0224935 221.53265414 130.0224935 221.53265414 130.02277579 223.00440983 C130.02578862 238.71753949 130.02877358 254.43066916 130.03173828 270.14379883 C130.03193788 271.20145861 130.03213747 272.2591184 130.03234312 273.34882848 C130.05372047 386.69313841 130.07216594 500.03744837 130.08468628 613.38175964 C130.08496518 615.89985828 130.08524408 618.41795691 130.08552299 620.93605554 C130.09136854 673.79330384 130.09680195 726.65055217 130.10175936 779.50780055 C130.10425012 806.06032297 130.10681999 832.61284537 130.10946488 859.16536777 C130.10973074 861.83521659 130.10999558 864.50506541 130.11025951 867.17491422 C130.11648822 930.17585487 130.12430889 993.17679473 130.1373291 1056.17773438 C130.13746597 1056.84054826 130.13760284 1057.50336214 130.13774386 1058.18626129 C130.14229773 1080.22697702 130.14700705 1102.26769272 130.15173688 1124.30840841 C130.16494667 1185.87529425 130.17709956 1247.44217947 130.18227959 1309.00906658 C130.18244019 1310.90877616 130.18244019 1310.90877616 130.18260404 1312.8468637 C130.18493574 1340.65117124 130.18672537 1368.45547878 130.18800197 1396.25978638 C130.1885252 1407.44785103 130.18912644 1418.63591568 130.18975449 1429.82398033 C130.18982134 1431.04845382 130.18988819 1432.27292731 130.18995707 1433.53450606 C130.19214877 1472.96614634 130.20068685 1512.39778211 130.21256442 1551.82942057 C130.22450324 1591.5610945 130.23019593 1631.29276404 130.22724798 1671.02443981 C130.22684183 1676.5193386 130.22650706 1682.0142374 130.22621536 1687.5091362 C130.2261556 1688.58625977 130.22609584 1689.66338335 130.22603427 1690.77314703 C130.225274 1707.80472622 130.23123282 1724.83629613 130.24001972 1741.8678728 C130.24852866 1758.62990709 130.24986574 1775.39192938 130.24366363 1792.15396481 C130.24024508 1801.97126196 130.24224236 1811.78852096 130.252434 1821.60581362 C130.25866598 1828.14123879 130.25752292 1834.67663692 130.25060215 1841.2120613 C130.24688976 1844.90699919 130.24609283 1848.60186335 130.25447049 1852.2967953 C130.30299069 1875.13899947 129.49091211 1897.92273461 126.25 1920.5625 C126.08008545 1921.75681641 125.9101709 1922.95113281 125.73510742 1924.18164062 C115.28836983 1994.21501558 82.84937862 2060.23399304 36 2113 C35.13117187 2113.98097656 34.26234375 2114.96195313 33.3671875 2115.97265625 C23.1039927 2127.35407973 12.48328303 2138.60489344 0.41015625 2148.08203125 C-1.8303481 2149.86499338 -3.90796578 2151.7346618 -6 2153.6875 C-36.78428587 2181.2834134 -76.40861244 2202.0015728 -115 2216 C-115.81339844 2216.30212402 -116.62679688 2216.60424805 -117.46484375 2216.91552734 C-142.92578743 2226.30660201 -169.99336134 2232.64342014 -196.94042969 2235.65771484 C-199.71745816 2235.96839103 -202.48647822 2236.31865054 -205.2578125 2236.67578125 C-237.19319331 2240.43413391 -270.30505015 2239.08213556 -302 2234 C-303.17530273 2233.81276367 -304.35060547 2233.62552734 -305.56152344 2233.43261719 C-363.89730313 2223.81792421 -422.10992678 2199.35297454 -468.34912109 2162.31738281 C-470.45679124 2160.63548572 -472.60360154 2159.00703631 -474.75 2157.375 C-491.71627669 2144.08149968 -507.98184197 2129.39005169 -522 2113 C-522.97605487 2111.87586112 -523.9526642 2110.75220354 -524.9296875 2109.62890625 C-525.99502557 2108.39864 -527.06012824 2107.16816989 -528.125 2105.9375 C-528.87958496 2105.0710083 -528.87958496 2105.0710083 -529.64941406 2104.18701172 C-533.01706871 2100.27729548 -536.0532101 2096.23668511 -539 2092 C-538.01 2091.505 -538.01 2091.505 -537 2091 C-534.96655273 2091.75341797 -534.96655273 2091.75341797 -532.43359375 2092.9921875 C-531.01191895 2093.67244995 -531.01191895 2093.67244995 -529.56152344 2094.36645508 C-528.01513184 2095.11318481 -528.01513184 2095.11318481 -526.4375 2095.875 C-495.69595134 2110.3300193 -462.73572547 2119.75655737 -429.25 2125.25 C-427.88935425 2125.47647217 -427.88935425 2125.47647217 -426.5012207 2125.70751953 C-408.54972694 2128.48615577 -390.51910933 2129.41233589 -372.375 2129.375 C-371.36552307 2129.37445618 -370.35604614 2129.37391235 -369.315979 2129.37335205 C-309.50169225 2129.22672828 -252.16925062 2114.22450043 -199 2087 C-198.0497998 2086.5138623 -197.09959961 2086.02772461 -196.12060547 2085.52685547 C-169.07506394 2071.52920895 -144.07021291 2053.25755551 -121.77734375 2032.55859375 C-119.51069545 2030.4704719 -117.21667109 2028.43993504 -114.875 2026.4375 C-107.31730977 2019.86969435 -100.48595005 2012.61225276 -94 2005 C-93.10904375 2003.98352323 -92.21702661 2002.96797582 -91.32421875 2001.953125 C-45.52909023 1949.6385511 -15.55723917 1884.33994458 -4.75 1815.75 C-4.52328613 1814.31720703 -4.52328613 1814.31720703 -4.29199219 1812.85546875 C-1.33674406 1792.81581776 -0.70225249 1772.889265 -0.735956 1752.66221669 C-0.74000242 1748.87126517 -0.73228431 1745.08033244 -0.72617769 1741.28938615 C-0.71704313 1734.63992476 -0.7152086 1727.99049329 -0.71827881 1721.3410268 C-0.72283475 1711.38685605 -0.71577949 1701.43271582 -0.70654711 1691.4785495 C-0.69114015 1674.50965596 -0.68510115 1657.54077079 -0.68421364 1640.5718708 C-0.68327608 1623.38479638 -0.67797593 1606.19773145 -0.66738319 1589.01066017 C-0.66671587 1587.92372431 -0.66604854 1586.83678844 -0.665361 1585.71691513 C-0.66193808 1580.17429056 -0.65844447 1574.63166604 -0.6549259 1569.08904153 C-0.62962484 1529.00602956 -0.61392724 1488.92301846 -0.60334396 1448.84000015 C-0.5928368 1409.15217937 -0.5782064 1369.46436359 -0.55806351 1329.77654648 C-0.55743952 1328.54341447 -0.55681554 1327.31028245 -0.55617265 1326.03978281 C-0.55047123 1314.77681018 -0.5447191 1303.51383758 -0.53890612 1292.25086501 C-0.52445716 1264.25397394 -0.51064413 1236.25708257 -0.49726295 1208.26019096 C-0.49634822 1206.34794119 -0.49634822 1206.34794119 -0.49541502 1204.39706011 C-0.46613568 1143.07358243 -0.44401113 1081.75010234 -0.42257814 1020.42662152 C-0.41482508 998.24622666 -0.40703883 976.06583181 -0.39910889 953.88543701 C-0.39887053 953.21844287 -0.39863218 952.55144873 -0.39838661 951.86424265 C-0.37572742 888.48652762 -0.3477123 825.10881533 -0.31831678 761.73110312 C-0.31707171 759.04585014 -0.31582819 756.36059717 -0.31458474 753.6753442 C-0.3019132 726.3113894 -0.28914875 698.94743464 -0.27632002 671.58347992 C-0.25142138 618.47248479 -0.22704999 565.36148943 -0.20304088 512.25049389 C-0.20189754 509.72128326 -0.20075382 507.19207263 -0.19960973 504.662862 C-0.16437603 426.76768408 -0.13152153 348.87250542 -0.10116577 270.97732544 C-0.09994011 267.83567372 -0.09871444 264.69402199 -0.09748857 261.55237027 C-0.06354335 174.36824739 -0.03209587 87.18412357 0 0 Z " fill="#24F3ED" transform="translate(2047,387)"/>
<path d="M0 0 C0.87289673 0.08358765 1.74579346 0.16717529 2.6451416 0.2532959 C5.13529293 0.49510982 7.62439114 0.74556 10.11328125 1 C10.83455704 1.07083801 11.55583282 1.14167603 12.29896545 1.21466064 C17.90025645 1.80663834 23.09625449 2.8817509 28.6875 4 C28.6875 37 28.6875 70 28.6875 104 C12.8475 104.99 12.8475 104.99 -3.3125 106 C-80.98928054 111.37330827 -155.76775851 126.39281165 -229.3125 152 C-230.51277832 152.41717285 -231.71305664 152.8343457 -232.94970703 153.26416016 C-262.90919219 163.78162276 -291.94789817 176.76893584 -320.3125 191 C-320.91600281 191.30228516 -321.51950562 191.60457031 -322.14129639 191.91601562 C-339.56725021 200.65284639 -356.625362 209.90983227 -373.3125 220 C-374.22999023 220.55429688 -375.14748047 221.10859375 -376.09277344 221.6796875 C-407.23669164 240.57226016 -437.52254255 261.33351488 -465.58886719 284.57617188 C-468.02480065 286.58840473 -470.48292475 288.5730775 -472.9375 290.5625 C-482.71507389 298.58099013 -492.25727738 306.84214836 -501.53125 315.4375 C-504.01257807 317.72366743 -506.52980816 319.95873118 -509.0625 322.1875 C-514.4603409 327.01576353 -519.53130169 332.16407776 -524.60449219 337.32885742 C-527.50756448 340.26963662 -530.39100468 343.13866143 -533.59375 345.75390625 C-535.87317158 347.63704908 -537.69312873 349.41965749 -539.5625 351.6875 C-542.34066779 354.95123252 -545.26090297 357.99001566 -548.3125 361 C-551.86168157 364.5117655 -555.23218457 368.09008901 -558.4765625 371.8828125 C-560.6645617 374.40599455 -562.92543113 376.85554519 -565.1875 379.3125 C-569.27687787 383.79662928 -573.15869021 388.40267238 -576.96875 393.125 C-579.06284348 395.69375467 -581.19463341 398.22072342 -583.34960938 400.73803711 C-588.77987835 407.08565801 -593.96253507 413.58037858 -598.99267578 420.25048828 C-600.38511037 422.0962497 -601.78433331 423.93675292 -603.18359375 425.77734375 C-652.8039827 491.2603214 -692.18237796 563.86284244 -720.3125 641 C-720.6947171 642.04516785 -720.6947171 642.04516785 -721.08465576 643.1114502 C-745.52717275 710.09916858 -760.34637398 780.57474233 -766.0625 851.625 C-766.12166595 852.36039001 -766.18083191 853.09578003 -766.24179077 853.85345459 C-766.64037898 858.89977328 -766.99021973 863.94826899 -767.3125 869 C-767.3608902 869.73865295 -767.4092804 870.47730591 -767.45913696 871.23834229 C-768.44368626 886.69355822 -768.51436782 902.1427577 -768.5 917.625 C-768.49906342 918.93246185 -768.49812683 920.23992371 -768.49716187 921.58700562 C-768.46583615 941.80165757 -768.17132452 961.86182956 -766.3125 982 C-766.19938477 983.24641266 -766.19938477 983.24641266 -766.08398438 984.51800537 C-758.49806784 1067.50982877 -740.1291298 1149.58661067 -699.3125 1247 C-698.83103516 1248.07572266 -698.34957031 1249.15144531 -697.85351562 1250.25976562 C-679.36065596 1291.41810617 -658.07404303 1331.86265532 -632.3125 1369 C-631.44934769 1370.26873392 -630.58742111 1371.53830239 -629.7265625 1372.80859375 C-619.71369775 1387.54222228 -609.28915332 1401.96942882 -598.3125 1416 C-597.42030585 1417.15083467 -596.52838637 1418.30188232 -595.63671875 1419.453125 C-590.65569752 1425.8624753 -585.56531504 1432.15469893 -580.28833008 1438.32299805 C-577.48142466 1441.60461903 -574.75439273 1444.9350316 -572.0625 1448.3125 C-567.56877715 1453.84448372 -562.71390723 1459.00694839 -557.80371094 1464.16723633 C-554.05495026 1468.11018956 -550.4267665 1472.13012367 -546.86132812 1476.23950195 C-545.10394989 1478.23705151 -543.27545491 1480.13832989 -541.375 1482 C-540.78847656 1482.5775 -540.20195313 1483.155 -539.59765625 1483.75 C-539.17355469 1484.1625 -538.74945312 1484.575 -538.3125 1485 C-538.6425 1485.66 -538.9725 1486.32 -539.3125 1487 C-550.1124318 1479.50253993 -560.87278201 1471.99437864 -571.3125 1464 C-572.62593333 1463.00602296 -573.93976402 1462.01257086 -575.25390625 1461.01953125 C-592.80223719 1447.72534114 -609.80378398 1433.79274783 -626.10546875 1418.9921875 C-628.04876001 1417.23806619 -630.01609448 1415.52027306 -632 1413.8125 C-643.7165016 1403.5404986 -654.78830372 1392.62766604 -665.8125 1381.625 C-666.4264563 1381.0136319 -667.0404126 1380.40226379 -667.67297363 1379.77236938 C-679.54673349 1367.93805658 -679.54673349 1367.93805658 -684.86230469 1361.6953125 C-687.2157005 1358.94413732 -689.71116992 1356.32755783 -692.1875 1353.6875 C-696.6462948 1348.89485085 -700.87370791 1343.97810172 -704.97265625 1338.87109375 C-707.17084372 1336.17381864 -709.42261362 1333.53734457 -711.70239258 1330.90942383 C-717.33256122 1324.41772126 -722.71353732 1317.78135875 -727.87548828 1310.90966797 C-729.50213846 1308.7479864 -731.13987024 1306.59489967 -732.77734375 1304.44140625 C-745.20684378 1288.04155206 -757.10376336 1271.2595473 -768.3125 1254 C-768.76270508 1253.30680664 -769.21291016 1252.61361328 -769.67675781 1251.89941406 C-816.12635397 1180.04421287 -850.79979012 1100.94278473 -896.55078125 877.40625 C-896.61403091 876.70555389 -896.67728058 876.00485779 -896.7424469 875.28292847 C-897.94527192 861.2824231 -898.47864379 847.3283148 -898.515625 833.28125 C-898.52264624 831.62337721 -898.52973307 829.9655047 -898.53688049 828.30763245 C-898.55628331 823.03841768 -898.56131454 817.76924689 -898.5625 812.5 C-898.56294186 811.60250408 -898.56338371 810.70500816 -898.56383896 809.7803154 C-898.57053453 783.85554606 -898.4376 758.06638013 -895.5625 732.27105713 C-895.29988324 729.88538651 -895.05290476 727.49845138 -894.80859375 725.11083984 C-890.65373371 684.87642994 -883.39536384 645.16305941 -873.3125 606 C-873.12534424 605.26706726 -872.93818848 604.53413452 -872.74536133 603.7789917 C-855.48058447 536.23961831 -828.96088509 470.21132726 -793.98046875 409.87841797 C-792.2693379 406.92551505 -790.57175529 403.96508895 -788.875 401.00390625 C-776.97832614 380.32750372 -764.18340118 360.40414567 -750.3125 341 C-749.22004627 339.46094163 -748.12759826 337.92187919 -747.03515625 336.3828125 C-729.64704883 311.99477612 -710.80909879 288.52470411 -690.55078125 266.45703125 C-688.55932664 264.27094931 -686.61577487 262.05417394 -684.6875 259.8125 C-681.77762695 256.45863224 -678.69367443 253.33354773 -675.5 250.25 C-673.61549101 248.31164789 -671.85385534 246.33163123 -670.08984375 244.28515625 C-666.20254813 239.81160715 -662.07565539 235.61546958 -657.875 231.4375 C-657.16279297 230.72142578 -656.45058594 230.00535156 -655.71679688 229.26757812 C-651.62303447 225.18125217 -647.42357944 221.28815305 -643.04272461 217.51196289 C-641.03783353 215.75998173 -639.16155277 213.91509037 -637.3125 212 C-633.47695447 208.1200273 -629.46005921 204.54142986 -625.3125 201 C-624.25885615 200.09405048 -623.20549323 199.18777417 -622.15234375 198.28125 C-619.14012101 195.69042409 -616.12027905 193.10863295 -613.09863281 190.52880859 C-611.43367836 189.10372046 -609.77473918 187.67196522 -608.1171875 186.23828125 C-600.15552536 179.3840355 -591.88344515 172.99236208 -583.50195312 166.66162109 C-581.34106712 165.02168017 -579.1921628 163.36731034 -577.046875 161.70703125 C-514.29805049 113.18870495 -443.51452841 74.82320055 -369.3125 47 C-368.11399414 46.55060059 -366.91548828 46.10120117 -365.68066406 45.63818359 C-286.1343973 16.07834626 -201.69842942 -0.1921902 0 0 Z " fill="#24F3ED" transform="translate(1760.3125,1336)"/>
<path d="M0 0 C0.85013672 0.08358765 1.70027344 0.16717529 2.57617188 0.2532959 C5.00206873 0.49534113 7.42696035 0.74533427 9.8515625 1 C10.54037506 1.07083801 11.22918762 1.14167603 11.93887329 1.21466064 C18.15212533 1.89332164 24.1757224 2.96678707 30.375 4 C30.375 152.83 30.375 301.66 30.375 455 C22.53404634 453.87986376 22.53404634 453.87986376 18.79296875 452.765625 C17.95709229 452.52368408 17.12121582 452.28174316 16.26000977 452.0324707 C15.36983154 451.77425537 14.47965332 451.51604004 13.5625 451.25 C-6.44193827 445.64455617 -26.96951616 442.13977411 -47.625 440 C-49.00353149 439.85643066 -49.00353149 439.85643066 -50.40991211 439.70996094 C-99.41686478 435.27681194 -149.87770481 440.64680291 -196.625 456 C-197.55989258 456.29986816 -198.49478516 456.59973633 -199.45800781 456.90869141 C-252.97928749 474.17391486 -304.40714609 504.35315546 -343.625 545 C-346.27682164 547.66944172 -348.94746536 550.31771508 -351.640625 552.9453125 C-358.46190076 559.62921899 -364.70692948 566.49094134 -370.625 574 C-371.50767458 575.06088123 -372.39323778 576.11936386 -373.28125 577.17578125 C-386.76795588 593.36997562 -398.2072968 611.31786119 -408.38232422 629.74951172 C-409.20221551 631.23433645 -410.02923145 632.71525226 -410.86376953 634.19189453 C-457.13895898 716.21269926 -466.35340834 818.41767447 -441.63623047 908.60791016 C-429.23975293 951.9869046 -410.08622892 994.01077746 -382.2421875 1029.70703125 C-380.625 1032 -380.625 1032 -380.625 1034 C-386.30835733 1032.41050819 -391.11047979 1029.67722314 -396.1875 1026.75 C-397.10426514 1026.22277344 -398.02103027 1025.69554688 -398.96557617 1025.15234375 C-420.26641861 1012.74062899 -440.19959008 998.36315758 -458.625 982 C-459.57246094 981.1646875 -460.51992187 980.329375 -461.49609375 979.46875 C-474.74791647 967.55865136 -487.67998168 955.08156665 -498.625 941 C-500.20488537 939.14289454 -501.7884403 937.28890671 -503.375 935.4375 C-542.8087153 888.01952395 -569.7357682 827.7729474 -579.625 767 C-579.83785645 765.76459473 -580.05071289 764.52918945 -580.27001953 763.25634766 C-583.69097144 743.16309959 -585.09536702 723.3840485 -585.0625 703 C-585.06254028 701.96357361 -585.06258057 700.92714722 -585.06262207 699.85931396 C-585.02041909 681.21041055 -583.79077642 662.68237224 -580.875 644.25 C-580.70653564 643.17838623 -580.53807129 642.10677246 -580.36450195 641.00268555 C-568.10747714 566.07923279 -531.99248689 494.24522225 -477.625 441 C-475.03065011 438.41857876 -472.45321208 435.82378201 -469.8984375 433.203125 C-463.48212496 426.6422164 -456.83715491 420.69128936 -449.625 415 C-448.51654461 414.09189608 -447.40985813 413.1816299 -446.3046875 412.26953125 C-428.87926553 397.96178731 -410.27789458 386.01182084 -390.625 375 C-389.48732178 374.35272949 -389.48732178 374.35272949 -388.32666016 373.69238281 C-352.28766707 353.25034465 -311.3124555 340.78494212 -270.625 334 C-269.90779785 333.87931152 -269.1905957 333.75862305 -268.45166016 333.63427734 C-264.18803442 332.93882336 -259.92215218 332.43735837 -255.625 332 C-254.79935547 331.91121582 -253.97371094 331.82243164 -253.12304688 331.73095703 C-200.86108209 326.25545436 -149.95146833 332.62100905 -99.625 347 C-99.625 231.5 -99.625 116 -99.625 -3 C-68.01330962 -8.26861506 -31.71107161 -3.13460731 0 0 Z " fill="#FD2B54" transform="translate(1887.625,1443)"/>
<path d="M0 0 C1.45369995 -0.00744736 1.45369995 -0.00744736 2.93676758 -0.01504517 C6.11581154 -0.02954318 9.29480547 -0.03645106 12.47387695 -0.04199219 C13.5723527 -0.04481956 14.67082844 -0.04764694 15.80259132 -0.05056 C21.62572083 -0.06550888 27.44882588 -0.07476323 33.27197266 -0.07910156 C39.21980377 -0.08455366 45.16740221 -0.10852486 51.11516094 -0.13707352 C55.74582012 -0.15591464 60.3764259 -0.16091694 65.00712013 -0.16243744 C67.19587272 -0.16542067 69.3846254 -0.17329779 71.57333946 -0.18662262 C90.73133782 -0.29485196 109.70488261 1.15157224 128.3371582 5.84863281 C129.88173706 6.23208862 129.88173706 6.23208862 131.45751953 6.62329102 C166.3512945 15.59888061 197.9212397 33.03002692 224.1184082 57.71582031 C226.71563017 60.16715224 226.71563017 60.16715224 229.41137695 62.25097656 C231.57482156 63.99961196 233.29736474 65.73019241 235.0871582 67.84863281 C236.90232193 69.97998635 238.71497527 72.09650798 240.61450195 74.15332031 C278.8077688 115.54888561 295.38280903 172.17592167 293.92700195 227.57666016 C293.22496255 244.0948372 290.25312673 260.26969505 285.7746582 276.16113281 C285.41960205 277.42207764 285.41960205 277.42207764 285.05737305 278.70849609 C272.23255521 322.92237302 243.80953408 362.90563737 206.7746582 390.16113281 C205.50235352 391.10859375 205.50235352 391.10859375 204.2043457 392.07519531 C163.74265448 421.31978401 116.58193006 433.26730127 67.1730957 433.36425781 C66.19052418 433.36708519 65.20795265 433.36991257 64.19560623 433.37282562 C58.98497508 433.38774915 53.77437107 433.39701904 48.5637207 433.40136719 C44.31265596 433.40573364 40.06179624 433.41956369 35.81079102 433.44238281 C-30.85781737 433.79308303 -94.16950986 422.28557465 -143.64086914 373.71484375 C-145.32855458 372.05992386 -147.03641439 370.42739392 -148.74487305 368.79394531 C-182.86914048 335.81593527 -204.73147588 290.19699462 -210.2253418 243.16113281 C-210.3181543 242.43998291 -210.4109668 241.71883301 -210.5065918 240.97583008 C-216.54631711 189.33078603 -203.26001579 135.60846838 -173.2253418 93.16113281 C-172.52803955 92.16291504 -172.52803955 92.16291504 -171.81665039 91.14453125 C-139.53808394 45.27906907 -88.92282977 13.28638426 -33.7644043 3.09472656 C-22.55559477 1.20183044 -11.37259798 0.01426756 0 0 Z M-37.19799805 145.82910156 C-57.27784632 168.9267305 -65.94196166 196.76411577 -64.2253418 227.16113281 C-61.89451471 254.16286818 -47.56388462 279.01527786 -27.2878418 296.53613281 C-4.53081415 314.57056069 23.01271763 323.70636418 52.06958008 320.94287109 C81.16431293 317.40247268 106.88842168 303.32885816 125.25366211 280.30712891 C142.14535766 257.69549412 149.46164804 230.37474349 146.0871582 202.28613281 C142.88545573 182.67846525 135.49489033 165.49120567 122.7746582 150.16113281 C122.08887695 149.31164063 121.4030957 148.46214844 120.6965332 147.58691406 C103.90976425 127.78474402 78.65201304 114.53268591 52.7746582 112.16113281 C18.18017508 109.87997408 -12.82141703 120.55522308 -37.19799805 145.82910156 Z " fill="#000000" transform="translate(2478.225341796875,3275.8388671875)"/>
<path d="M0 0 C41.91 0 83.82 0 127 0 C127.33 80.19 127.66 160.38 128 243 C154.4 216.6 180.8 190.2 208 163 C210.64 160.69 213.28 158.38 216 156 C217.44592753 154.00011197 218.89162284 151.99749411 220.23454475 149.92703056 C228.43609551 137.42447073 239.81639316 123.64668778 254.9272995 119.90833282 C276.53062766 115.49514822 299.79807514 117.49547926 321.66440308 118.47906196 C330.65876228 118.87639944 339.65424109 119.06421204 348.65524232 119.23867381 C367.1134224 119.60092588 385.55527037 120.21312891 404 121 C402.29358151 124.6425656 400.25681802 126.97975319 397.375 129.8125 C396.14910156 131.02873047 396.14910156 131.02873047 394.8984375 132.26953125 C392.83129313 134.21688154 390.76360547 136.05500414 388.6015625 137.88671875 C381.71112497 143.87180183 375.4169041 150.51790239 369 157 C354.2092366 171.9410324 354.2092366 171.9410324 348.16015625 177.0625 C342.3569019 182.2675889 336.98151652 187.96071091 331.5 193.5 C317.26984572 207.88013332 317.26984572 207.88013332 313.03125 211.46875 C306.28237452 217.19046544 300.21940491 223.71740811 294 230 C278.95466097 245.19819443 278.95466097 245.19819443 273.01220703 250.23681641 C268.68500256 254.02850176 264.60564965 258.09170779 260.51489258 262.13500977 C259.45241413 263.18071484 258.38457358 264.22099636 257.31176758 265.25610352 C255.74647794 266.76695241 254.19799362 268.29331536 252.65234375 269.82421875 C251.73445068 270.72229248 250.81655762 271.62036621 249.87084961 272.5456543 C247.77805806 274.76084698 247.77805806 274.76084698 248.04956055 277.07446289 C249.08786574 279.17801107 250.21199393 281.05860304 251.5546875 282.984375 C252.08102783 283.74588867 252.60736816 284.50740234 253.1496582 285.29199219 C253.719021 286.10313477 254.28838379 286.91427734 254.875 287.75 C255.46434326 288.59981445 256.05368652 289.44962891 256.66088867 290.32519531 C257.86822268 292.06599492 259.07777681 293.80525688 260.28955078 295.54296875 C262.21807949 298.31326749 264.12760674 301.09607549 266.03369141 303.88183594 C271.67529897 312.12345126 277.38883084 320.31511956 283.09692383 328.51074219 C287.3455737 334.61348574 291.57282483 340.73008393 295.77734375 346.86328125 C299.82504121 352.76066835 303.91193716 358.63054665 308 364.5 C312.94893338 371.60545183 317.88128005 378.72131678 322.77734375 385.86328125 C326.82504142 391.76066866 330.91197692 397.63051863 335 403.5 C341.7963332 413.25914325 348.54886375 423.04711435 355.27246094 432.85644531 C361.8403909 442.43571865 368.45834977 451.9792121 375.09643555 461.51000977 C379.34522294 467.61301491 383.57265896 473.72984197 387.77734375 479.86328125 C392.50780012 486.75542984 397.2906702 493.6110328 402.0690918 500.4699707 C406.61919196 507.00463679 411.14721292 513.55378077 415.63867188 520.12890625 C417.30633063 522.56523068 418.97770047 524.9713847 420.79296875 527.30078125 C422 529 422 529 422 531 C404.49318618 531.44506416 386.98815129 531.77946129 369.476964 531.98443127 C361.34477295 532.08216211 353.2161078 532.21521387 345.08618164 532.43334961 C337.99464061 532.6235325 330.90565263 532.7454825 323.81163234 532.7876814 C320.05824839 532.81233607 316.31216256 532.86962572 312.56113625 533.00887108 C289.80507864 533.82155843 289.80507864 533.82155843 283.48288918 529.13350105 C279.31028953 524.68826779 276.52684214 519.72724119 274.02965927 514.19873047 C272.71155767 511.38406135 271.01876015 508.95605562 269.16015625 506.47265625 C268.64259766 505.73466797 268.12503906 504.99667969 267.59179688 504.23632812 C267.08712891 503.51896484 266.58246094 502.80160156 266.0625 502.0625 C264.88668983 500.38673904 263.71090946 498.71095717 262.53515625 497.03515625 C261.95137207 496.20387207 261.36758789 495.37258789 260.76611328 494.51611328 C257.83978136 490.34708138 254.92021901 486.1733148 252 482 C250.83336611 480.33331039 249.66669943 478.66664373 248.5 477 C241.5 467 241.5 467 239.74951172 464.49926758 C238.58451636 462.83501172 237.4194774 461.17078639 236.25439453 459.5065918 C233.31179589 455.30329077 230.36999096 451.09943819 227.4296875 446.89453125 C221.96823569 439.08561332 216.50040068 431.2815462 211 423.5 C203.69956312 413.17190025 196.45641484 402.80380377 189.20898438 392.43847656 C181.16761055 380.93887258 173.10266343 369.45651312 165 358 C160.54277389 361.23832516 156.31510489 364.4389766 152.5 368.4375 C149.80734897 371.19437099 147.10454058 373.85656124 144.1875 376.375 C143.58500427 376.92862717 142.98250854 377.48225433 142.36175537 378.05265808 C140 380 140 380 137.01495361 381.66889954 C132.0323779 384.97651427 128.71615374 387.94581097 127.31129456 393.93712997 C126.27081976 402.51432746 126.44573242 411.15608641 126.58134365 419.77961898 C126.62853461 423.58998279 126.6072738 427.39998186 126.59356689 431.21052551 C126.57791736 438.41092175 126.62298526 445.60957929 126.69038892 452.80962497 C126.77801399 462.54956619 126.77079904 472.28942066 126.76916313 482.0296793 C126.76906725 497.3541885 126.89477099 512.67501378 127 528 C85.09 528 43.18 528 0 528 C0 353.76 0 179.52 0 0 Z " fill="#000000" transform="translate(1461,3178)"/>
<path d="M0 0 C41.58 0 83.16 0 126 0 C126.33 80.19 126.66 160.38 127 243 C130.63 239.37 134.26 235.74 138 232 C139.38131607 230.83141953 140.76263214 229.66283905 142.18580627 228.45884705 C146.87893239 224.43526395 150.35577338 219.60057778 154.02709961 214.65844727 C165.09144838 200.12785353 176.7746139 186.18569709 188.9375 172.5625 C189.48367729 171.94912151 190.02985458 171.33574303 190.5925827 170.70377731 C218.48759815 139.48567662 245.15295895 116.88567621 288.29169011 114.26023746 C303.22783411 113.47590045 318.06955374 113.72881981 333 114.5 C333.8701869 114.54383269 334.74037379 114.58766538 335.63692999 114.63282633 C358.20575616 115.79192052 380.61518474 117.90184211 403 121 C401.62101299 123.863149 400.30978861 125.93928723 398.05419922 128.1887207 C397.4595285 128.78646805 396.86485779 129.38421539 396.25216675 130.00007629 C395.6094986 130.63555893 394.96683044 131.27104156 394.3046875 131.92578125 C393.63841339 132.59159714 392.97213928 133.25741302 392.28567505 133.94340515 C390.87412939 135.35193182 389.46015619 136.75802933 388.04394531 138.16186523 C385.89858764 140.28911149 383.76119566 142.42410443 381.625 144.56054688 C380.24786382 145.93276149 378.8702736 147.30452063 377.4921875 148.67578125 C376.86166473 149.30519119 376.23114197 149.93460114 375.58151245 150.58308411 C372.46226193 153.66990163 369.29349587 156.64999996 365.97314453 159.52026367 C362.12046085 162.85297522 358.51307837 166.3741164 354.9375 170 C354.30191162 170.639375 353.66632324 171.27875 353.01147461 171.9375 C351.0051635 173.95588397 349.00215999 175.97749876 347 178 C332.2092366 192.9410324 332.2092366 192.9410324 326.16015625 198.0625 C320.3569019 203.2675889 314.98151652 208.96071091 309.5 214.5 C295.26984572 228.88013332 295.26984572 228.88013332 291.03125 232.46875 C284.28237452 238.19046544 278.21940491 244.71740811 272 251 C269.35717635 253.66967382 266.71193376 256.33688529 264.0625 259 C263.43569336 259.63075439 262.80888672 260.26150879 262.16308594 260.91137695 C258.40114491 264.67281531 254.57382332 268.27528065 250.41796875 271.60546875 C248.75716406 273.23882212 247.93102834 274.87907203 247 277 C247.42708252 277.61294922 247.85416504 278.22589844 248.29418945 278.85742188 C262.62067107 299.42325832 262.62067107 299.42325832 268.5 308 C272.9702184 314.52081657 277.48150714 321.01255494 282 327.5 C286.95044195 334.60761777 291.88450464 341.72550876 296.78173828 348.86987305 C300.78524635 354.70332348 304.82998174 360.50778453 308.875 366.3125 C314.30928959 374.11218393 319.70530126 381.93610306 325.06152344 389.78955078 C330.06244575 397.11243979 335.12941965 404.38875757 340.19921875 411.6640625 C343.98416987 417.09718116 347.75625534 422.53841137 351.5 428 C355.97020374 434.52082643 360.48150726 441.01255512 365 447.5 C369.95044195 454.60761777 374.88450464 461.72550876 379.78173828 468.86987305 C383.78524694 474.70332434 387.83008868 480.50770915 391.875 486.3125 C398.49966445 495.82409545 405.08698025 505.3599101 411.60302734 514.94628906 C412.51038643 516.28021158 413.41946922 517.61296382 414.33056641 518.94433594 C415.49573241 520.64730584 416.65438057 522.35473019 417.8125 524.0625 C418.43769531 524.98160156 419.06289062 525.90070312 419.70703125 526.84765625 C421 529 421 529 421 531 C403.60613088 531.39809163 386.21369321 531.69735785 368.81630325 531.88080692 C360.73714705 531.96827313 352.66082926 532.08737385 344.58349609 532.2824707 C337.5384812 532.45255141 330.49552177 532.56173065 323.44851089 532.59950441 C319.71981978 532.62157411 315.99700505 532.67293252 312.27021027 532.79741096 C289.70290078 533.52207702 289.70290078 533.52207702 283.62773132 529.38422775 C279.77561544 525.52347394 277.34566644 521.17585726 275.1085434 516.24369621 C273.22207955 512.42548593 270.66057064 509.09448425 268.125 505.6875 C261.98429577 496.99295149 255.88202263 488.27161456 249.78222656 479.54833984 C246.85623267 475.3645694 243.9280169 471.18235476 241 467 C239.83332241 465.33334098 238.66665575 463.66667431 237.5 462 C236.9225 461.175 236.345 460.35 235.75 459.5 C224.66666667 443.66666667 213.58333333 427.83333333 202.5 412 C201.92241943 411.17491943 201.34483887 410.34983887 200.74975586 409.49975586 C199.58377189 407.83399475 198.4179189 406.16814196 197.25219727 404.50219727 C194.32615547 400.32091173 191.39781516 396.14127198 188.46484375 391.96484375 C180.55870437 380.70028634 172.74403878 369.37661202 165 358 C161.78369859 359.52603415 159.71230701 361.09800771 157.25 363.6875 C154.72296354 366.27921381 152.18699116 368.77086051 149.4375 371.125 C144.54216735 375.32519541 139.87522625 379.76907017 135.19116211 384.20166016 C134.2515564 385.0860376 134.2515564 385.0860376 133.29296875 385.98828125 C132.7311792 386.51977783 132.16938965 387.05127441 131.59057617 387.59887695 C130 389 130 389 127 391 C126.53598495 393.48575081 126.53598495 393.48575081 126.60127258 396.44155884 C126.58246536 398.17479149 126.58246536 398.17479149 126.5632782 399.94303894 C126.56543083 401.85382988 126.56543083 401.85382988 126.56762695 403.80322266 C126.55861442 405.15326336 126.54828845 406.50329584 126.53674316 407.85331726 C126.50908687 411.52459074 126.49987706 415.19570935 126.49388909 418.86707354 C126.48452773 422.70151479 126.45832628 426.53583931 126.43388367 430.37020874 C126.3901531 437.63393397 126.36164653 444.89763663 126.33856028 452.1614536 C126.30649473 461.97505719 126.25101187 471.78852624 126.19681454 481.60202789 C126.11201982 497.06797872 126.05859911 512.53387639 126 528 C84.42 528 42.84 528 0 528 C0 353.76 0 179.52 0 0 Z " fill="#000000" transform="translate(2813,3178)"/>
<path d="M0 0 C131.34 0 262.68 0 398 0 C388.8083246 29.87294504 388.8083246 29.87294504 384.87109375 42.203125 C384.42835949 43.59296143 383.9857412 44.98283482 383.54322815 46.3727417 C382.40457048 49.94819237 381.26443155 53.52316873 380.12390137 57.09802246 C378.97817463 60.69005816 377.83386615 64.28254559 376.68945312 67.875 C374.99223352 73.20239692 373.29418187 78.52952749 371.59545898 83.85644531 C368.39343449 93.9031699 365.19717633 103.95173153 362 114 C327.35 114 292.7 114 257 114 C257 250.62 257 387.24 257 528 C214.43 528 171.86 528 128 528 C128 390.39 128 252.78 128 111 C85.76 111 43.52 111 0 111 C0 74.37 0 37.74 0 0 Z " fill="#000000" transform="translate(1912,3178)"/>
<path d="M0 0 C131.01 0 262.02 0 397 0 C396.33931259 4.62481184 395.7821786 8.15850337 394.38037109 12.44897461 C394.04846771 13.47474106 393.71656433 14.50050751 393.37460327 15.55735779 C393.01121857 16.66120316 392.64783386 17.76504852 392.2734375 18.90234375 C391.6963353 20.68107628 391.6963353 20.68107628 391.10757446 22.4957428 C390.07503 25.67614392 389.0378947 28.8549638 387.99798584 32.03295898 C379.0851688 59.2804894 370.55204906 86.63344302 362 114 C327.35 114 292.7 114 257 114 C257 250.62 257 387.24 257 528 C214.43 528 171.86 528 128 528 C128 390.39 128 252.78 128 111 C85.76 111 43.52 111 0 111 C0 74.37 0 37.74 0 0 Z " fill="#000000" transform="translate(862,3178)"/>
<path d="M0 0 C41.91 0 83.82 0 127 0 C127.02202533 45.59006288 127.04049721 91.18012076 127.05106533 136.77018743 C127.05231611 142.14651494 127.05361042 147.52284243 127.05493164 152.89916992 C127.05519395 153.9695477 127.05545626 155.03992548 127.05572652 156.14273895 C127.06008365 173.49822214 127.06797144 190.85370203 127.0771528 208.20918327 C127.08648814 226.00349316 127.09205535 243.79780132 127.09408849 261.59211355 C127.09546397 272.58149688 127.09981589 283.5708709 127.10791647 294.56025136 C127.11318245 302.08526325 127.11480463 309.61027028 127.11350138 317.13528388 C127.11285776 321.48366133 127.11387811 325.83202245 127.11920547 330.18039703 C127.12403911 334.15454967 127.12433889 338.12867485 127.12089889 342.10282869 C127.12047317 343.54698284 127.1217692 344.99113864 127.12488318 346.43528949 C127.12884669 348.38550023 127.12615657 350.33572121 127.12304783 352.28593349 C127.12342755 353.3730728 127.12380727 354.46021211 127.1241985 355.58029503 C127 358 127 358 126 359 C84.42 359 42.84 359 0 359 C0 240.53 0 122.06 0 0 Z " fill="#000000" transform="translate(1282,3347)"/>
<path d="M0 0 C40.26 0 80.52 0 122 0 C122.33 19.14 122.66 38.28 123 58 C124.34275031 71.46699571 125.77108326 84.68721759 128 98 C128.12717407 98.77375977 128.25434814 99.54751953 128.38537598 100.34472656 C138.29620018 160.52491797 156.39336368 220.6387172 184.83007812 274.75439453 C186.29907973 277.57406832 187.73409347 280.41037586 189.171875 283.24609375 C196.26413229 297.17059501 203.65988453 310.78287698 212 324 C212.51385254 324.81484863 213.02770508 325.62969727 213.55712891 326.46923828 C228.02078007 349.27918584 243.64668738 371.29090741 261 392 C261.64533691 392.7727124 261.64533691 392.7727124 262.30371094 393.56103516 C268.39126096 400.84319667 274.59493904 407.99397036 281 415 C276.78667945 415 274.12687477 412.83015325 270.6875 410.625 C269.97182861 410.17092773 269.25615723 409.71685547 268.51879883 409.24902344 C262.17201232 405.18404609 256.01972041 400.88616353 249.94580078 396.42626953 C247.79160777 394.84724875 245.62825771 393.28120431 243.46484375 391.71484375 C233.03410649 384.13174873 222.88731267 376.2790109 213 368 C212.39317383 367.49227051 211.78634766 366.98454102 211.16113281 366.46142578 C203.10238363 359.69216345 195.29823844 352.67997088 187.60888672 345.49560547 C185.99910981 343.99917249 184.37859024 342.5153805 182.75390625 341.03515625 C173.04638347 332.17917056 163.37466758 323.17656228 154.86328125 313.14453125 C152.85915188 310.83789179 150.78687156 308.60719854 148.70092773 306.37475586 C143.65553077 300.97293736 138.81575609 295.47972813 134.1875 289.7109375 C131.96233446 286.95332163 129.67223453 284.26023923 127.375 281.5625 C97.772726 246.04893599 73.67305019 206.24024439 53 165 C52.25556641 163.51717529 52.25556641 163.51717529 51.49609375 162.00439453 C30.939355 120.7718896 16.27381496 76.80339215 5.5625 32.0625 C5.39455933 31.36946777 5.22661865 30.67643555 5.05358887 29.96240234 C4.56856479 27.94722414 4.09669521 25.92939786 3.62890625 23.91015625 C3.36150635 22.76683838 3.09410645 21.62352051 2.81860352 20.44555664 C1.5727342 13.67966507 0.85331462 6.82651692 0 0 Z " fill="#FD2B54" transform="translate(2498,494)"/>
<path d="M0 0 C0.72058594 0.41507813 1.44117187 0.83015625 2.18359375 1.2578125 C5.30961427 3.05161539 8.44056598 4.83639473 11.57373047 6.61767578 C13.26182664 7.57943876 14.9482278 8.54418043 16.63330078 9.51123047 C90.8717064 52.07148492 172.76017198 80.00526166 273.125 90.6875 C274.38900635 90.80706055 275.6530127 90.92662109 276.95532227 91.04980469 C293.3038386 92.43027049 309.54288508 92.52979672 326 93 C326 124.35 326 155.7 326 188 C313.79158737 185.42980787 301.79734599 182.80017617 289.8125 179.4375 C289.05019073 179.22479462 288.28788147 179.01208923 287.50247192 178.79293823 C261.68777397 171.55906317 236.6501692 162.5468182 212 152 C211.14680176 151.6376123 210.29360352 151.27522461 209.41455078 150.90185547 C184.09413749 140.07516062 159.48631828 127.35736064 136 113 C134.98437988 112.38237793 133.96875977 111.76475586 132.92236328 111.12841797 C89.72788823 84.7814689 50.84548825 52.80654212 15.01327515 17.18850708 C13.71348764 15.8968937 12.41223842 14.6067496 11.10952759 13.31808472 C9.26695763 11.49330943 7.43135583 9.66180869 5.59765625 7.828125 C5.03278503 7.27038895 4.46791382 6.71265289 3.88592529 6.13801575 C0 2.2291535 0 2.2291535 0 0 Z " fill="#24F3ED" transform="translate(2779,910)"/>
<path d="M0 0 C62.71319044 -1.01561931 120.60145305 13.50906153 167.34375 57.5546875 C169.94097197 60.00601943 169.94097197 60.00601943 172.63671875 62.08984375 C174.80016336 63.83847914 176.52270653 65.56905959 178.3125 67.6875 C180.12766373 69.81885354 181.94031706 71.93537516 183.83984375 73.9921875 C222.0331106 115.3877528 238.60815083 172.01478886 237.15234375 227.41552734 C236.45030435 243.93370438 233.47846853 260.10856224 229 276 C228.7632959 276.84062988 228.5265918 277.68125977 228.28271484 278.54736328 C215.45789701 322.76124021 187.03487587 362.74450455 150 390 C148.72769531 390.94746094 148.72769531 390.94746094 147.4296875 391.9140625 C107.90767156 420.47947996 61.16049922 433.32447227 12.75 433.0625 C11.11849097 433.05747149 9.48698042 433.05291099 7.85546875 433.04882812 C3.9036077 433.03793757 -0.04817892 433.02074866 -4 433 C-4 432.67 -4 432.34 -4 432 C-3.02111816 431.89510254 -3.02111816 431.89510254 -2.02246094 431.78808594 C29.23152433 428.38353623 60.09962171 422.21388301 88 407 C88.69303223 406.62407715 89.38606445 406.2481543 90.10009766 405.86083984 C105.7349722 397.26394619 119.58449757 386.7028851 133 375 C134.2684375 373.9171875 134.2684375 373.9171875 135.5625 372.8125 C140.50976133 368.5337875 144.79883406 364.00219961 149 359 C150.21623047 357.63294922 150.21623047 357.63294922 151.45703125 356.23828125 C173.84497715 330.89435998 189.15502516 299.80018233 197 267 C197.28230469 265.89914062 197.56460938 264.79828125 197.85546875 263.6640625 C210.67609109 209.90855969 200.68343615 152.14389891 172.23583984 104.98974609 C140.42931744 53.78011402 90.75741008 19.18306966 32.15625 5.4765625 C21.55026441 3.16522518 10.80253778 1.95911714 0 1 C0 0.67 0 0.34 0 0 Z " fill="#FC2B54" transform="translate(2535,3276)"/>
<path d="M0 0 C1.59244651 0.00502605 3.18489455 0.009587 4.77734375 0.01367188 C8.64326779 0.02458763 12.50911653 0.04179105 16.375 0.0625 C16.375 0.3925 16.375 0.7225 16.375 1.0625 C15.80918213 1.12195801 15.24336426 1.18141602 14.66040039 1.24267578 C-15.02106404 4.47092519 -43.29089511 11.78154674 -69.625 26.0625 C-70.27098145 26.40361816 -70.91696289 26.74473633 -71.58251953 27.09619141 C-123.24197667 54.39445734 -159.42183922 101.30626731 -176.75 156.66796875 C-179.26424727 165.04920705 -181.2497767 173.42272335 -182.625 182.0625 C-182.79636475 183.0844043 -182.79636475 183.0844043 -182.97119141 184.12695312 C-191.84219504 239.16660235 -176.47013617 297.13150386 -144.453125 342.23828125 C-140.16644868 348.12727331 -135.44829013 353.61102688 -130.625 359.0625 C-129.88765625 359.92230469 -129.1503125 360.78210937 -128.390625 361.66796875 C-113.68291459 378.54962906 -95.86133738 391.77011205 -76.625 403.0625 C-76.04524414 403.40732422 -75.46548828 403.75214844 -74.86816406 404.10742188 C-44.88797337 421.73474316 -10.11003316 430.2271621 24.375 432.0625 C24.375 432.3925 24.375 432.7225 24.375 433.0625 C-39.78731963 434.08619926 -101.80018424 421.26827775 -149.51171875 375.1171875 C-150.01622559 374.62186523 -150.52073242 374.12654297 -151.04052734 373.61621094 C-152.72821278 371.96129104 -154.43607259 370.32876111 -156.14453125 368.6953125 C-190.26879868 335.71730246 -212.13113408 290.09836181 -217.625 243.0625 C-217.7178125 242.3413501 -217.810625 241.6202002 -217.90625 240.87719727 C-223.94597531 189.23215322 -210.65967399 135.50983557 -180.625 93.0625 C-179.92769775 92.06428223 -179.92769775 92.06428223 -179.21630859 91.04589844 C-146.93774214 45.18043626 -96.32248797 13.18775145 -41.1640625 2.99609375 C-36.66324434 2.2360147 -32.15803565 1.59491395 -27.625 1.0625 C-26.56829102 0.92001831 -26.56829102 0.92001831 -25.49023438 0.7746582 C-17.02319752 -0.25134956 -8.51279348 -0.04698792 0 0 Z " fill="#24F3ED" transform="translate(2485.625,3275.9375)"/>
<path d="M0 0 C13.11031315 9.64197634 23.25756399 23.73950745 26 40 C27.66505016 59.48739112 25.099147 75.91616086 12.8984375 91.72265625 C2.44953537 103.96227129 -12.31941003 112.72476932 -28.5222168 114.23510742 C-49.00294381 115.30355033 -64.49067822 111.09302033 -80.40234375 98.02734375 C-92.31034058 86.89645228 -98.99084067 71.20917483 -100.21875 55.13671875 C-100.73249751 38.97507829 -95.72743961 24.69260212 -86 12 C-85.07574219 10.75669922 -85.07574219 10.75669922 -84.1328125 9.48828125 C-62.95097118 -15.22386695 -26.24779341 -16.47314964 0 0 Z " fill="#000000" transform="translate(1382,3189)"/>
</svg>
